<svg width="1031" height="624" viewBox="0 0 1031 624" fill="none" xmlns="http://www.w3.org/2000/svg">
<g id="undrawHorror2">
<path id="Vector" opacity="0.1" d="M520 624C802.218 624 1031 588.107 1031 543.83C1031 499.553 802.218 463.66 520 463.66C237.783 463.66 9 499.553 9 543.83C9 588.107 237.783 624 520 624Z" fill="#392608"/>
<path id="Vector_2" d="M911.7 515.01C925.673 515.01 937 512.83 937 510.14C937 507.45 925.673 505.27 911.7 505.27C897.727 505.27 886.4 507.45 886.4 510.14C886.4 512.83 897.727 515.01 911.7 515.01Z" fill="#F9A826"/>
<path id="Vector_3" d="M911.28 511.94C912.909 511.94 914.23 510.212 914.23 508.08C914.23 505.948 912.909 504.22 911.28 504.22C909.651 504.22 908.33 505.948 908.33 508.08C908.33 510.212 909.651 511.94 911.28 511.94Z" fill="#3F3D56"/>
<path id="Vector_4" d="M911.28 507.22C912.909 507.22 914.23 505.492 914.23 503.36C914.23 501.228 912.909 499.5 911.28 499.5C909.651 499.5 908.33 501.228 908.33 503.36C908.33 505.492 909.651 507.22 911.28 507.22Z" fill="#3F3D56"/>
<path id="Vector_5" d="M911.28 502.51C912.909 502.51 914.23 500.782 914.23 498.65C914.23 496.518 912.909 494.79 911.28 494.79C909.651 494.79 908.33 496.518 908.33 498.65C908.33 500.782 909.651 502.51 911.28 502.51Z" fill="#3F3D56"/>
<path id="Vector_6" d="M911.28 497.8C912.909 497.8 914.23 496.072 914.23 493.94C914.23 491.808 912.909 490.08 911.28 490.08C909.651 490.08 908.33 491.808 908.33 493.94C908.33 496.072 909.651 497.8 911.28 497.8Z" fill="#3F3D56"/>
<path id="Vector_7" d="M911.28 493.08C912.909 493.08 914.23 491.352 914.23 489.22C914.23 487.088 912.909 485.36 911.28 485.36C909.651 485.36 908.33 487.088 908.33 489.22C908.33 491.352 909.651 493.08 911.28 493.08Z" fill="#3F3D56"/>
<path id="Vector_8" d="M911.28 488.37C912.909 488.37 914.23 486.642 914.23 484.51C914.23 482.378 912.909 480.65 911.28 480.65C909.651 480.65 908.33 482.378 908.33 484.51C908.33 486.642 909.651 488.37 911.28 488.37Z" fill="#3F3D56"/>
<path id="Vector_9" d="M911.28 483.66C912.909 483.66 914.23 481.932 914.23 479.8C914.23 477.668 912.909 475.94 911.28 475.94C909.651 475.94 908.33 477.668 908.33 479.8C908.33 481.932 909.651 483.66 911.28 483.66Z" fill="#3F3D56"/>
<path id="Vector_10" d="M922.3 447.55C922.705 447.037 923.073 446.496 923.4 445.93L915.66 444.66L924.03 444.72C924.832 442.972 925.269 441.08 925.316 439.158C925.362 437.236 925.016 435.324 924.3 433.54L913.07 439.37L923.43 431.75C922.463 430.064 921.159 428.595 919.599 427.436C918.038 426.277 916.256 425.453 914.362 425.015C912.468 424.577 910.505 424.535 908.594 424.891C906.683 425.247 904.866 425.993 903.257 427.084C901.649 428.174 900.282 429.585 899.244 431.228C898.205 432.871 897.517 434.711 897.223 436.632C896.928 438.554 897.034 440.515 897.532 442.393C898.031 444.272 898.912 446.028 900.12 447.55C899.495 448.348 898.955 449.209 898.51 450.12L908.51 455.34L897.8 451.74C897.045 453.963 896.857 456.339 897.253 458.653C897.649 460.967 898.618 463.145 900.07 464.99C898.433 467.071 897.414 469.571 897.131 472.204C896.848 474.837 897.311 477.496 898.468 479.878C899.625 482.26 901.428 484.268 903.673 485.674C905.917 487.079 908.512 487.824 911.16 487.824C913.808 487.824 916.403 487.079 918.647 485.674C920.892 484.268 922.695 482.26 923.852 479.878C925.009 477.496 925.472 474.837 925.189 472.204C924.906 469.571 923.887 467.071 922.25 464.99C924.206 462.504 925.27 459.433 925.27 456.27C925.27 453.107 924.206 450.036 922.25 447.55H922.3Z" fill="#F9A826"/>
<path id="Vector_11" opacity="0.1" d="M897.1 456.27C897.09 459.431 898.147 462.504 900.1 464.99C898.463 467.071 897.444 469.571 897.161 472.204C896.878 474.837 897.341 477.496 898.498 479.878C899.655 482.26 901.458 484.268 903.703 485.674C905.947 487.079 908.542 487.824 911.19 487.824C913.838 487.824 916.433 487.079 918.677 485.674C920.922 484.268 922.725 482.26 923.882 479.878C925.039 477.496 925.502 474.837 925.219 472.204C924.936 469.571 923.917 467.071 922.28 464.99C924.19 462.59 897.1 454.69 897.1 456.27Z" fill="black"/>
<path id="Vector_12" d="M818.5 386H215.5V524.5H818.5V386Z" fill="#46455B"/>
<path id="Vector_13" d="M219.5 242.5L162.5 285.5L206.5 325.5L231.5 285.5L265.5 242.5H219.5Z" fill="#46455B"/>
<path id="Vector_14" d="M808.5 294.5L800.5 285.5L749.5 256.5L796.5 255.5L869.5 285.5L839.5 304.5L808.5 294.5Z" fill="#46455B"/>
<path id="Vector_15" d="M215.5 296.5L265.5 242.5V366.5L231.5 394.5L210.5 365.5L215.5 296.5Z" fill="#46455B"/>
<path id="Vector_16" d="M809.5 318.5L800.5 285.5L783.5 263.5L749.5 256.5V394.5H818.5L809.5 318.5Z" fill="#46455B"/>
<path id="Vector_17" d="M276.55 205.5H743.45C747.574 205.5 751.529 207.138 754.445 210.055C757.362 212.971 759 216.926 759 221.05V363.5H261V221.05C261 216.926 262.638 212.971 265.555 210.055C268.471 207.138 272.426 205.5 276.55 205.5V205.5Z" fill="#46455B"/>
<path id="Vector_18" d="M231.5 394.5L265.5 352.5H749.5L800.5 394.5H231.5Z" fill="#46455B"/>
<path id="Vector_19" opacity="0.05" d="M231.5 394.5L265.5 352.5H749.5L800.5 394.5H231.5Z" fill="black"/>
<path id="Vector_20" d="M231.5 285.5H162.5V524.5H231.5V285.5Z" fill="#46455B"/>
<path id="Vector_21" opacity="0.05" d="M231.5 285.5H162.5V524.5H231.5V285.5Z" fill="white"/>
<path id="Vector_22" d="M869.5 285.5H800.5V524.5H869.5V285.5Z" fill="#46455B"/>
<path id="Vector_23" opacity="0.05" d="M869.5 285.5H800.5V524.5H869.5V285.5Z" fill="white"/>
<path id="Vector_24" d="M449 241C493.183 241 529 193.766 529 135.5C529 77.234 493.183 30 449 30C404.817 30 369 77.234 369 135.5C369 193.766 404.817 241 449 241Z" fill="#2F2E41"/>
<path id="Vector_25" d="M484 90H395V214H484V90Z" fill="#2F2E41"/>
<path id="Vector_26" opacity="0.1" d="M484 90H395V214H484V90Z" fill="black"/>
<path id="Vector_27" d="M401.46 162.72C398.676 166.111 395.08 168.745 391.008 170.378C386.935 172.01 382.516 172.589 378.16 172.06C377.76 178.28 381.98 183.74 385.97 188.53L417.2 226C417.323 226.297 417.525 226.554 417.785 226.744C418.044 226.933 418.351 227.048 418.671 227.075C418.991 227.102 419.312 227.04 419.6 226.896C419.887 226.752 420.129 226.532 420.3 226.26L468 181.01C463.24 183.01 457.61 179.84 455 175.38C452.39 170.92 452.13 165.56 451.89 160.38C451.543 152.647 451.21 144.92 450.89 137.2C450.81 135.48 450.64 133.58 449.37 132.42C448.382 131.676 447.203 131.229 445.97 131.13C438.44 129.84 414.97 123.13 410.62 131.05C408.62 134.66 409.52 141.7 408.62 145.78C407.27 151.83 405.36 157.86 401.46 162.72Z" fill="#FBBEBE"/>
<path id="Vector_28" opacity="0.1" d="M401.46 162.72C398.676 166.111 395.08 168.745 391.008 170.378C386.935 172.01 382.516 172.589 378.16 172.06C377.76 178.28 381.98 183.74 385.97 188.53L417.2 226C417.323 226.297 417.525 226.554 417.785 226.744C418.044 226.933 418.351 227.048 418.671 227.075C418.991 227.102 419.312 227.04 419.6 226.896C419.887 226.752 420.129 226.532 420.3 226.26L468 181.01C463.24 183.01 457.61 179.84 455 175.38C452.39 170.92 452.13 165.56 451.89 160.38C451.543 152.647 451.21 144.92 450.89 137.2C450.81 135.48 450.64 133.58 449.37 132.42C448.382 131.676 447.203 131.229 445.97 131.13C438.44 129.84 414.97 123.13 410.62 131.05C408.62 134.66 409.52 141.7 408.62 145.78C407.27 151.83 405.36 157.86 401.46 162.72Z" fill="black"/>
<path id="Vector_29" d="M436 155C461.957 155 483 133.957 483 108C483 82.0426 461.957 61 436 61C410.043 61 389 82.0426 389 108C389 133.957 410.043 155 436 155Z" fill="#FBBEBE"/>
<path id="Vector_30" d="M419 202.64L411.46 178.87C408.46 169.35 404.2 158.56 394.7 155.49C388.7 153.57 382.23 155.33 375.98 154.8C363.82 153.75 351.98 144.08 340.61 148.51C326.61 153.95 326.73 175.45 314.3 183.89C314.3 203.98 320.79 222.64 324.3 242.41C327.81 262.18 328.82 283.52 319.66 301.41C315.78 308.99 310.23 315.59 306.09 323.03C299.303 335.299 296.527 349.384 298.15 363.31C351.23 363.977 404.317 364.137 457.41 363.79C456.92 356.91 453.85 350.13 453.35 343.25C453.05 341.173 453.214 339.056 453.83 337.05C455 334.05 457.98 332.26 460.53 330.31C463.946 327.677 466.84 324.428 469.06 320.73C472.6 314.84 474.28 308.05 475.92 301.37L495.8 220.37C498.17 210.72 500.47 200.19 496.35 191.15C491.83 181.22 480.99 176.06 470.98 171.71C464.98 169.08 458.08 166.42 451.98 168.84C446.98 170.84 443.84 175.63 440.68 179.97C434.566 188.518 427.266 196.151 419 202.64V202.64Z" fill="#F86D70"/>
<path id="Vector_31" opacity="0.1" d="M313.77 191.02C312.21 196.86 313.08 203.1 311.93 209.02C310 218.93 302.77 226.81 297.93 235.65C290.429 249.377 288.53 265.474 292.63 280.57C293.85 284.98 296.02 289.7 300.3 291.32C303.36 292.49 306.78 291.76 310.05 292.05C314.37 292.43 318.86 294.57 322.85 292.87C327.78 290.77 328.76 284.36 329.3 279.03C330.544 266.669 333.205 254.493 337.23 242.74C341.23 230.98 346.72 219.31 346.64 206.88C346.58 198.12 335.36 206.18 328.04 200.99C319.78 195.17 316.48 180.93 313.77 191.02Z" fill="black"/>
<path id="Vector_32" d="M311.77 190.02C310.21 195.86 311.08 202.1 309.93 208.02C308 217.93 300.77 225.81 295.93 234.65C288.429 248.377 286.53 264.474 290.63 279.57C291.85 283.98 294.02 288.7 298.3 290.32C301.36 291.49 304.78 290.76 308.05 291.05C312.37 291.43 316.86 293.57 320.85 291.87C325.78 289.77 326.76 283.36 327.3 278.03C328.544 265.669 331.205 253.493 335.23 241.74C339.23 229.98 344.72 218.31 344.64 205.88C344.58 197.12 340.73 187.44 333.41 182.25C325.15 176.43 314.48 179.93 311.77 190.02Z" fill="#F86D70"/>
<path id="Vector_33" d="M380.2 135.03C386.2 131.67 392.11 128.03 398.29 124.91C407.95 120.08 418.81 116.31 426.41 108.91C426.801 108.537 427.282 108.27 427.806 108.135C428.33 107.999 428.879 108.001 429.402 108.138C429.926 108.275 430.405 108.544 430.795 108.919C431.185 109.294 431.472 109.763 431.63 110.28C434.9 120.93 438.769 131.387 443.22 141.6C447.06 150.4 451.34 159.04 454.22 168.2C456.22 174.57 457.47 181.2 459.96 187.33C463.21 195.33 468.4 202.45 473.55 209.43C475.44 212.01 477.39 214.63 480.04 216.43C483.76 218.96 489.31 220.58 489.7 225.06C484.87 228.55 478.3 227.4 472.35 227.35C466.4 227.3 460.35 228.53 454.47 229.98C447.601 231.547 440.902 233.785 434.47 236.66C428.21 239.61 422.47 243.49 416.67 247.35L363.5 283.02C359.59 278.55 359.74 272.02 358.9 266.1C358.183 261.84 357.154 257.639 355.82 253.53L350.52 235.68C348 227.2 345.52 218.73 342.68 210.34C340.34 203.34 337.74 196.27 333.16 190.49C327.64 183.49 319.7 178.95 312.81 173.32C310.37 171.32 307.96 169.04 307.05 166.02C306.748 165.034 306.663 163.994 306.801 162.972C306.939 161.95 307.297 160.97 307.85 160.1C309.31 157.99 311.4 158.3 313.72 157.93C319.38 157.03 324.993 155.893 330.56 154.52C341.603 151.78 352.397 148.12 362.83 143.58C368.757 141.02 374.547 138.17 380.2 135.03Z" fill="#BBBDC8"/>
<path id="Vector_34" opacity="0.1" d="M382.38 142.43C387.65 139.51 392.77 136.31 398.16 133.61C406.6 129.39 416.06 126.11 422.69 119.68C423.03 119.351 423.45 119.116 423.907 118.996C424.365 118.876 424.846 118.875 425.304 118.995C425.762 119.114 426.181 119.35 426.522 119.678C426.863 120.006 427.114 120.417 427.25 120.87C430.101 130.16 433.476 139.282 437.36 148.19C440.71 155.87 444.44 163.41 446.93 171.4C448.65 176.95 449.76 182.7 451.93 188.09C454.76 195.09 459.3 201.28 463.78 207.37C465.309 209.708 467.223 211.77 469.44 213.47C472.7 215.68 477.54 217.09 477.87 221.01C473.66 224.01 467.93 223.01 462.74 223.01C457.467 223.116 452.229 223.889 447.15 225.31C441.162 226.674 435.324 228.627 429.72 231.14C424.313 233.862 419.122 236.991 414.19 240.5L367.8 271.57C364.39 267.67 364.53 261.94 363.8 256.8C363.178 253.072 362.283 249.396 361.12 245.8L356.49 230.23C354.29 222.83 352.09 215.44 349.65 208.12C347.65 202.01 345.35 195.85 341.35 190.8C336.53 184.71 329.61 180.74 323.59 175.8C321.47 174.07 319.36 172.07 318.59 169.44C318.326 168.58 318.252 167.674 318.373 166.783C318.494 165.892 318.807 165.038 319.29 164.28C320.56 162.43 322.39 162.7 324.41 162.38C329.35 161.6 334.247 160.6 339.1 159.38C348.735 156.996 358.151 153.805 367.25 149.84C372.417 147.613 377.46 145.143 382.38 142.43Z" fill="black"/>
<path id="Vector_35" d="M362.97 183.14C365.179 183.14 366.97 181.349 366.97 179.14C366.97 176.931 365.179 175.14 362.97 175.14C360.761 175.14 358.97 176.931 358.97 179.14C358.97 181.349 360.761 183.14 362.97 183.14Z" fill="#BBBDC8"/>
<path id="Vector_36" d="M405.62 163.39C407.829 163.39 409.62 161.599 409.62 159.39C409.62 157.181 407.829 155.39 405.62 155.39C403.411 155.39 401.62 157.181 401.62 159.39C401.62 161.599 403.411 163.39 405.62 163.39Z" fill="#BBBDC8"/>
<path id="Vector_37" d="M383.14 226.7C385.349 226.7 387.14 224.909 387.14 222.7C387.14 220.491 385.349 218.7 383.14 218.7C380.931 218.7 379.14 220.491 379.14 222.7C379.14 224.909 380.931 226.7 383.14 226.7Z" fill="#BBBDC8"/>
<path id="Vector_38" d="M425.79 206.95C427.999 206.95 429.79 205.159 429.79 202.95C429.79 200.741 427.999 198.95 425.79 198.95C423.581 198.95 421.79 200.741 421.79 202.95C421.79 205.159 423.581 206.95 425.79 206.95Z" fill="#BBBDC8"/>
<path id="Vector_39" d="M321.29 247.84C325.29 246.69 329.5 245.43 332.44 242.48C334.72 240.18 335.99 237.09 337.59 234.27C340.78 228.64 345.83 223.65 352.18 222.41C358.53 221.17 365.99 224.84 367.35 231.17C368.23 235.29 366.51 239.48 364.8 243.34C362.24 249.12 359.35 255.18 354.07 258.67C349.45 261.72 343.56 262.39 339.02 265.56C335.02 268.36 332.5 272.79 329.02 276.24C324.471 280.72 318.453 283.402 312.08 283.79C311.112 283.904 310.131 283.77 309.23 283.4C308.347 282.877 307.605 282.146 307.07 281.27C304.13 277.27 301.15 273.15 299.59 268.42C294.16 251.93 309.53 251.21 321.29 247.84Z" fill="#FBBEBE"/>
    <!--TODO left girl left hand-->
    <path id="Vector_40" d="M427.83 250.04C426.48 241.98 426.3 233.19 421.32 226.71C417.15 221.3 410.22 218.56 403.4 218.1C401.4 217.96 399.05 218.16 397.89 219.8C397.23 220.957 396.966 222.299 397.14 223.62C397.562 233.862 401.383 243.671 408 251.5C410.49 254.42 413.38 257.08 415.12 260.5C416.64 263.45 417.2 266.82 418.61 269.82C420.45 273.73 423.61 276.82 426.03 280.42C429.461 285.577 431.24 291.657 431.13 297.85C433.77 293.54 433.45 288.15 433.7 283.1C434.03 275.99 439.01 272.1 435.78 266.3C432.55 260.5 429 257.09 427.83 250.04Z" fill="#FBBEBE"/>
<path id="Vector_41" opacity="0.1" d="M464.74 242.01C462.21 248.61 460.91 255.67 457.93 262.08C457.144 264.085 455.797 265.821 454.05 267.08C450.85 269.08 446.62 267.84 443.44 265.85C440.26 263.86 437.44 261.12 433.97 259.8C432.41 274.99 419.79 288.36 404.71 290.8C413.71 299.07 423.19 308.26 425.22 320.3C425.6 322.51 425.73 324.86 426.91 326.77C428.81 329.82 432.82 330.82 436.42 330.77C445.57 330.7 453.96 325.87 461.6 320.77C464.18 319.07 466.79 317.25 468.51 314.69C470.23 312.13 470.97 308.88 471.62 305.78C476.04 284.773 480.457 263.757 484.87 242.73C486.07 237.02 485.87 225.8 477.01 226.93C471 227.81 466.6 237.18 464.74 242.01Z" fill="black"/>
<path id="Vector_42" d="M466.74 242.01C464.21 248.61 462.91 255.67 459.93 262.08C459.144 264.085 457.797 265.821 456.05 267.08C452.85 269.08 448.62 267.84 445.44 265.85C442.26 263.86 439.44 261.12 435.97 259.8C434.41 274.99 421.79 288.36 406.71 290.8C415.71 299.07 425.19 308.26 427.22 320.3C427.6 322.51 427.73 324.86 428.91 326.77C430.81 329.82 434.82 330.82 438.42 330.77C447.57 330.7 455.96 325.87 463.6 320.77C466.18 319.07 468.79 317.25 470.51 314.69C472.23 312.13 472.97 308.88 473.62 305.78C478.04 284.773 482.457 263.757 486.87 242.73C488.07 237.02 487.87 225.8 479.01 226.93C473 227.81 468.6 237.18 466.74 242.01Z" fill="#F86D70"/>
<path id="Vector_43" d="M320.86 281.01C320.5 282.84 318.69 283.95 317.05 284.83C313.88 286.54 310.43 288.31 306.86 287.83C303.29 287.35 300.3 284.71 297.96 281.91C296.794 280.578 295.788 279.115 294.96 277.55C291.35 270.42 290.96 240.08 305.88 249.98C312.04 254.08 308.57 261.08 309.34 267.11C309.677 270.686 311.105 274.072 313.43 276.81C313.88 277.33 320.63 282.19 320.86 281.01Z" fill="#F86D70"/>
<path id="Vector_44" d="M448.5 97C473.077 97 493 87.598 493 76C493 64.402 473.077 55 448.5 55C423.923 55 404 64.402 404 76C404 87.598 423.923 97 448.5 97Z" fill="#2F2E41"/>
<path id="Vector_45" opacity="0.1" d="M450.5 90C426.42 90 406.83 81 406.04 69.7C404.763 71.5548 404.066 73.748 404.04 76C404.04 87.6 423.96 97 448.54 97C473.12 97 493.04 87.6 493.04 76C493.04 75.76 493.04 75.53 493.04 75.3C487.29 83.82 470.43 90 450.5 90Z" fill="black"/>
<path id="Vector_46" d="M644 239C704.751 239 754 194.228 754 139C754 83.7715 704.751 39 644 39C583.249 39 534 83.7715 534 139C534 194.228 583.249 239 644 239Z" fill="#2F2E41"/>
<path id="Vector_47" opacity="0.1" d="M644 213C588.29 213 542.25 175.34 535 126.5C534.338 130.97 534.004 135.482 534 140C534 195.23 583.25 240 644 240C704.75 240 754 195.23 754 140C753.996 135.482 753.662 130.97 753 126.5C745.75 175.34 699.71 213 644 213Z" fill="black"/>
<path id="Vector_48" d="M642 214C671.271 214 695 181.988 695 142.5C695 103.012 671.271 71 642 71C612.729 71 589 103.012 589 142.5C589 181.988 612.729 214 642 214Z" fill="#2F2E41"/>
<path id="Vector_49" opacity="0.1" d="M642 214C671.271 214 695 181.988 695 142.5C695 103.012 671.271 71 642 71C612.729 71 589 103.012 589 142.5C589 181.988 612.729 214 642 214Z" fill="black"/>
<path id="Vector_50" d="M617.63 178.74C615.63 183.68 611.63 188.93 605.63 189.31C613.63 195.88 621.73 202.52 631.29 207.31C640.85 212.1 652.17 214.91 663.05 213.19C670.73 211.98 677.71 208.61 684.23 204.92C695.33 198.64 706.23 190.39 709.04 179.21C700.706 179.629 692.353 179.472 684.04 178.74C679.73 178.37 675.32 177.8 671.58 175.92C669.284 174.708 667.254 173.048 665.611 171.039C663.967 169.029 662.743 166.711 662.01 164.22C660.52 159.5 660.55 154.53 660.82 149.64C660.97 146.79 661.08 143.64 658.89 141.46C656.7 139.28 653.08 138.99 649.79 138.92C643.173 138.786 636.555 139.177 630 140.09C626.561 140.447 623.155 141.065 619.81 141.94C615.47 143.26 615.88 142.75 616.93 146.38C620.19 157.5 622.18 167.5 617.63 178.74Z" fill="#A0616A"/>
<path id="Vector_51" opacity="0.1" d="M617.63 178.74C615.63 183.68 611.63 188.93 605.63 189.31C613.63 195.88 621.73 202.52 631.29 207.31C640.85 212.1 652.17 214.91 663.05 213.19C670.73 211.98 677.71 208.61 684.23 204.92C695.33 198.64 706.23 190.39 709.04 179.21C700.706 179.629 692.353 179.472 684.04 178.74C679.73 178.37 675.32 177.8 671.58 175.92C669.284 174.708 667.254 173.048 665.611 171.039C663.967 169.029 662.743 166.711 662.01 164.22C660.52 159.5 660.55 154.53 660.82 149.64C660.97 146.79 661.08 143.64 658.89 141.46C656.7 139.28 653.08 138.99 649.79 138.92C643.173 138.786 636.555 139.177 630 140.09C626.561 140.447 623.155 141.065 619.81 141.94C615.47 143.26 615.88 142.75 616.93 146.38C620.19 157.5 622.18 167.5 617.63 178.74Z" fill="black"/>
<path id="Vector_52" d="M640.5 168.5C666.457 168.5 687.5 147.457 687.5 121.5C687.5 95.5426 666.457 74.5 640.5 74.5C614.543 74.5 593.5 95.5426 593.5 121.5C593.5 147.457 614.543 168.5 640.5 168.5Z" fill="#A0616A"/>
<path id="Vector_53" d="M624.3 182.88C621.23 179.2 618.07 175.44 613.98 172.94C607.28 168.83 598.98 168.57 591.13 168.44C582.62 168.29 573.37 168.37 566.64 173.58C563.64 175.93 561.34 179.15 559.15 182.31L530.64 223.31C529.53 224.91 528.36 226.72 528.64 228.65C528.959 230.039 529.65 231.315 530.64 232.34L562 271.5C563.79 273.73 565.64 276.08 566.24 278.88C566.84 281.68 566.1 284.62 565.14 287.34C561.35 298.13 554.14 308.34 554.8 319.71C555.27 327.13 559.15 333.95 563.9 339.71C574.8 352.84 590.49 361.38 606.9 366.04C623.31 370.7 640.54 371.72 657.61 371.83C689.79 372.04 723.61 368.53 750.19 350.38L729.3 330.7C725.17 326.8 720.84 322.6 719.41 317.1C718.41 313.4 718.89 309.5 719.34 305.71C720.18 298.78 721.02 291.8 723.26 285.2C729.49 266.81 745.5 253.72 756.18 237.51C757.52 235.51 758.82 233.21 758.67 230.78C758.55 228.73 757.41 226.9 756.3 225.18C751.42 217.61 746.36 210.08 742.82 201.8C740.18 195.64 738.39 189.09 735.12 183.24C731.85 177.39 726.66 172.13 720.12 170.9C711.7 169.32 703.49 174.59 694.94 174.95C688.68 175.22 682.15 172.87 676.3 175.1C669.36 177.75 666.3 185.57 662.41 191.92C659.54 196.65 650.98 209.59 644.27 206.41C640.62 204.67 637.27 198.41 634.65 195.34L624.3 182.88Z" fill="#F98A8D"/>
<path id="Vector_54" d="M661.74 214.67C660.156 213.777 658.316 213.445 656.52 213.73C655.633 213.9 654.827 214.36 654.228 215.036C653.629 215.713 653.271 216.569 653.21 217.47L650.32 217.3C649.986 217.265 649.649 217.281 649.32 217.35C648.902 217.44 648.538 217.693 648.306 218.052C648.074 218.411 647.995 218.847 648.085 219.265C648.175 219.683 648.428 220.048 648.787 220.279C649.146 220.511 649.582 220.59 650 220.5C648.582 221.062 647.317 221.954 646.31 223.1C645.555 224.234 645.279 225.621 645.541 226.958C645.804 228.295 646.583 229.474 647.71 230.24C648.893 230.92 650.283 231.145 651.62 230.872C652.957 230.6 654.148 229.849 654.97 228.76C654.801 229.357 654.849 229.995 655.105 230.561C655.361 231.126 655.809 231.583 656.37 231.85C661.79 234.78 664.55 230.8 665.29 226.19C666.13 221.13 667.21 217.37 661.74 214.67Z" fill="#FFE9B3"/>
<path id="Vector_55" opacity="0.15" d="M661.74 214.67C660.156 213.777 658.316 213.445 656.52 213.73C655.633 213.9 654.827 214.36 654.228 215.036C653.629 215.713 653.271 216.569 653.21 217.47L650.32 217.3C649.986 217.265 649.649 217.281 649.32 217.35C648.902 217.44 648.538 217.693 648.306 218.052C648.074 218.411 647.995 218.847 648.085 219.265C648.175 219.683 648.428 220.048 648.787 220.279C649.146 220.511 649.582 220.59 650 220.5C648.582 221.062 647.317 221.954 646.31 223.1C645.555 224.234 645.279 225.621 645.541 226.958C645.804 228.295 646.583 229.474 647.71 230.24C648.893 230.92 650.283 231.145 651.62 230.872C652.957 230.6 654.148 229.849 654.97 228.76C654.801 229.357 654.849 229.995 655.105 230.561C655.361 231.126 655.809 231.583 656.37 231.85C661.79 234.78 664.55 230.8 665.29 226.19C666.13 221.13 667.21 217.37 661.74 214.67Z" fill="black"/>
<path id="Vector_56" d="M676.5 211.27C674.916 210.376 673.075 210.048 671.28 210.34C670.394 210.507 669.588 210.964 668.991 211.64C668.393 212.315 668.038 213.17 667.98 214.07L665.09 213.9C664.756 213.866 664.419 213.883 664.09 213.95C663.699 214.073 663.368 214.336 663.159 214.688C662.95 215.041 662.879 215.458 662.96 215.86C663.066 216.256 663.317 216.598 663.664 216.819C664.01 217.039 664.426 217.122 664.83 217.05C663.413 217.615 662.149 218.505 661.14 219.65C660.388 220.785 660.113 222.171 660.375 223.507C660.637 224.843 661.415 226.023 662.54 226.79C663.723 227.472 665.114 227.698 666.453 227.428C667.791 227.157 668.985 226.408 669.81 225.32C669.641 225.915 669.688 226.55 669.942 227.114C670.197 227.678 670.642 228.133 671.2 228.4C676.63 231.34 679.38 227.4 680.13 222.75C680.9 217.73 682 213.97 676.5 211.27Z" fill="#FFE9B3"/>
<path id="Vector_57" d="M688.54 212.99C686.959 212.098 685.122 211.77 683.33 212.06C682.442 212.225 681.634 212.681 681.035 213.357C680.435 214.032 680.078 214.889 680.02 215.79L677.13 215.62C676.796 215.584 676.459 215.601 676.13 215.67C675.739 215.793 675.408 216.056 675.199 216.408C674.99 216.761 674.919 217.178 675 217.58C675.106 217.976 675.357 218.318 675.704 218.539C676.05 218.759 676.466 218.842 676.87 218.77C675.45 219.33 674.185 220.221 673.18 221.37C672.425 222.504 672.149 223.891 672.411 225.228C672.674 226.565 673.453 227.744 674.58 228.51C675.761 229.193 677.151 229.421 678.488 229.15C679.826 228.879 681.018 228.129 681.84 227.04C681.672 227.636 681.72 228.272 681.976 228.836C682.232 229.4 682.68 229.855 683.24 230.12C688.66 233.06 691.41 229.07 692.16 224.47C692.94 219.5 694 215.69 688.54 212.99Z" fill="#FFE9B3"/>
<path id="Vector_58" opacity="0.15" d="M688.54 212.99C686.959 212.098 685.122 211.77 683.33 212.06C682.442 212.225 681.634 212.681 681.035 213.357C680.435 214.032 680.078 214.889 680.02 215.79L677.13 215.62C676.796 215.584 676.459 215.601 676.13 215.67C675.739 215.793 675.408 216.056 675.199 216.408C674.99 216.761 674.919 217.178 675 217.58C675.106 217.976 675.357 218.318 675.704 218.539C676.05 218.759 676.466 218.842 676.87 218.77C675.45 219.33 674.185 220.221 673.18 221.37C672.425 222.504 672.149 223.891 672.411 225.228C672.674 226.565 673.453 227.744 674.58 228.51C675.761 229.193 677.151 229.421 678.488 229.15C679.826 228.879 681.018 228.129 681.84 227.04C681.672 227.636 681.72 228.272 681.976 228.836C682.232 229.4 682.68 229.855 683.24 230.12C688.66 233.06 691.41 229.07 692.16 224.47C692.94 219.5 694 215.69 688.54 212.99Z" fill="black"/>
<path id="Vector_59" d="M718 220V327.42C717.997 328.103 717.725 328.758 717.241 329.241C716.758 329.725 716.103 329.997 715.42 330H631.58C630.897 329.997 630.242 329.725 629.759 329.241C629.275 328.758 629.003 328.103 629 327.42V220C628.999 219.571 629.105 219.149 629.309 218.772C629.512 218.395 629.806 218.074 630.164 217.839C630.522 217.604 630.934 217.461 631.361 217.425C631.788 217.388 632.217 217.459 632.61 217.63C634.743 218.55 636.873 219.4 639 220.18C642 221.28 645 222.237 648 223.05C651 223.86 654 224.53 657 225.05C660 225.57 663 225.97 666 226.21C669 226.45 672 226.55 675 226.49C678 226.43 681 226.26 684 225.93C687 225.6 690 225.11 693 224.48C696 223.85 699 223.11 702 222.2C704.33 221.49 706.67 220.7 709 219.82C710.8 219.15 712.59 218.42 714.39 217.64C714.782 217.469 715.211 217.399 715.637 217.435C716.063 217.471 716.474 217.612 716.832 217.846C717.19 218.08 717.484 218.399 717.688 218.775C717.892 219.151 717.999 219.572 718 220V220Z" fill="#BBBDC8"/>
<path id="Vector_60" d="M648 223.05V330.05H639V220.18C642 221.28 645 222.237 648 223.05Z" fill="white"/>
<path id="Vector_61" d="M666 226.2V330H657V225C660 225.58 663 225.96 666 226.2Z" fill="white"/>
<path id="Vector_62" d="M684 225.92V330H675V226.5C678 226.447 681 226.253 684 225.92Z" fill="white"/>
<path id="Vector_63" d="M702 222.19V330H693V224.5C696 223.873 699 223.103 702 222.19Z" fill="white"/>
<path id="Vector_64" opacity="0.1" d="M718 220V327.42C717.997 328.103 717.725 328.758 717.241 329.241C716.758 329.725 716.103 329.997 715.42 330H709V219.81C710.8 219.14 712.59 218.41 714.39 217.63C714.783 217.459 715.212 217.388 715.639 217.425C716.066 217.461 716.478 217.604 716.836 217.839C717.194 218.074 717.488 218.395 717.691 218.772C717.895 219.149 718.001 219.571 718 220Z" fill="black"/>
<path id="Vector_65" d="M652.41 209.55C650.829 208.658 648.992 208.33 647.2 208.62C646.312 208.785 645.504 209.241 644.905 209.917C644.305 210.592 643.948 211.449 643.89 212.35L641 212.18C640.666 212.144 640.329 212.161 640 212.23C639.609 212.353 639.278 212.616 639.069 212.968C638.86 213.321 638.789 213.738 638.87 214.14C638.976 214.536 639.227 214.878 639.574 215.099C639.92 215.319 640.336 215.402 640.74 215.33C639.32 215.89 638.055 216.781 637.05 217.93C636.295 219.064 636.019 220.451 636.281 221.788C636.544 223.125 637.323 224.304 638.45 225.07C639.632 225.751 641.021 225.977 642.358 225.707C643.694 225.436 644.886 224.687 645.71 223.6C645.542 224.196 645.59 224.832 645.846 225.396C646.102 225.96 646.55 226.415 647.11 226.68C652.53 229.61 655.28 225.63 656.03 221.03C656.81 216.01 657.89 212.25 652.41 209.55Z" fill="#FFE9B3"/>
<path id="Vector_66" d="M667.41 192.55C665.829 191.658 663.992 191.33 662.2 191.62C661.312 191.785 660.504 192.241 659.905 192.917C659.305 193.592 658.948 194.449 658.89 195.35L656 195.18C655.666 195.144 655.329 195.161 655 195.23C654.609 195.353 654.278 195.616 654.069 195.968C653.86 196.321 653.789 196.738 653.87 197.14C653.976 197.536 654.227 197.878 654.574 198.099C654.92 198.319 655.336 198.402 655.74 198.33C654.32 198.89 653.055 199.781 652.05 200.93C651.295 202.064 651.019 203.451 651.281 204.788C651.544 206.125 652.323 207.304 653.45 208.07C654.632 208.751 656.021 208.977 657.358 208.707C658.694 208.436 659.886 207.687 660.71 206.6C660.542 207.196 660.59 207.832 660.846 208.396C661.102 208.96 661.55 209.415 662.11 209.68C667.53 212.61 670.28 208.63 671.03 204.03C671.81 199.01 672.89 195.25 667.41 192.55Z" fill="#FFE9B3"/>
<path id="Vector_67" d="M677.6 215.64C678.786 214.261 679.467 212.518 679.53 210.7C679.548 209.794 679.262 208.908 678.719 208.183C678.175 207.459 677.405 206.936 676.53 206.7L677.26 203.9C677.366 203.578 677.417 203.239 677.41 202.9C677.394 202.478 677.211 202.08 676.902 201.793C676.592 201.506 676.182 201.354 675.76 201.37C675.338 201.386 674.94 201.569 674.653 201.878C674.366 202.188 674.214 202.598 674.23 203.02C673.957 201.521 673.329 200.108 672.4 198.9C671.431 197.942 670.123 197.405 668.76 197.405C667.397 197.405 666.09 197.942 665.12 198.9C664.217 199.923 663.719 201.241 663.719 202.605C663.719 203.969 664.217 205.287 665.12 206.31C664.566 206.03 663.931 205.954 663.328 206.097C662.724 206.24 662.19 206.592 661.82 207.09C657.89 211.83 661.26 215.31 665.63 216.94C670.41 218.7 673.89 220.5 677.6 215.64Z" fill="#FFE9B3"/>
<path id="Vector_68" d="M690.6 215.64C691.786 214.261 692.467 212.518 692.53 210.7C692.548 209.794 692.262 208.908 691.719 208.183C691.175 207.459 690.405 206.936 689.53 206.7L690.26 203.9C690.366 203.578 690.417 203.239 690.41 202.9C690.394 202.478 690.211 202.08 689.902 201.793C689.592 201.506 689.182 201.354 688.76 201.37C688.338 201.386 687.94 201.569 687.653 201.878C687.366 202.188 687.214 202.598 687.23 203.02C686.957 201.521 686.329 200.108 685.4 198.9C684.431 197.942 683.123 197.405 681.76 197.405C680.397 197.405 679.09 197.942 678.12 198.9C677.217 199.923 676.719 201.241 676.719 202.605C676.719 203.969 677.217 205.287 678.12 206.31C677.566 206.03 676.931 205.954 676.328 206.097C675.724 206.24 675.19 206.592 674.82 207.09C670.89 211.83 674.26 215.31 678.63 216.94C683.41 218.7 686.89 220.5 690.6 215.64Z" fill="#FFE9B3"/>
<path id="Vector_69" d="M698.74 224.19C699.656 222.618 700.009 220.78 699.74 218.98C699.583 218.09 699.134 217.278 698.464 216.671C697.794 216.065 696.941 215.698 696.04 215.63L696.25 212.75C696.301 212.419 696.301 212.081 696.25 211.75C696.156 211.339 695.902 210.982 695.545 210.758C695.188 210.534 694.756 210.461 694.345 210.555C693.934 210.649 693.577 210.903 693.353 211.26C693.129 211.617 693.056 212.049 693.15 212.46C692.6 211.036 691.723 209.762 690.59 208.74C689.463 207.974 688.079 207.683 686.739 207.93C685.399 208.177 684.21 208.942 683.43 210.06C682.736 211.236 682.495 212.624 682.753 213.965C683.011 215.305 683.749 216.506 684.83 217.34C684.235 217.166 683.597 217.208 683.03 217.459C682.463 217.71 682.002 218.153 681.73 218.71C678.73 224.1 682.73 226.9 687.29 227.71C692.24 228.5 696 229.63 698.74 224.19Z" fill="#FFE9B3"/>
<path id="Vector_70" d="M658.74 208.19C659.656 206.618 660.009 204.78 659.74 202.98C659.583 202.09 659.134 201.278 658.464 200.671C657.794 200.065 656.941 199.698 656.04 199.63L656.25 196.75C656.301 196.419 656.301 196.081 656.25 195.75C656.156 195.339 655.902 194.982 655.545 194.758C655.188 194.534 654.756 194.461 654.345 194.555C653.934 194.649 653.577 194.903 653.353 195.26C653.129 195.617 653.056 196.049 653.15 196.46C652.6 195.036 651.723 193.762 650.59 192.74C649.463 191.974 648.079 191.683 646.739 191.93C645.399 192.177 644.21 192.942 643.43 194.06C642.736 195.236 642.495 196.624 642.753 197.965C643.011 199.305 643.749 200.506 644.83 201.34C644.235 201.166 643.597 201.208 643.03 201.459C642.463 201.71 642.002 202.153 641.73 202.71C638.73 208.1 642.73 210.9 647.29 211.71C652.24 212.5 656 213.63 658.74 208.19Z" fill="#FFE9B3"/>
<path id="Vector_71" d="M662.74 202.67C661.156 201.777 659.316 201.445 657.52 201.73C656.633 201.9 655.827 202.36 655.228 203.036C654.629 203.713 654.271 204.569 654.21 205.47L651.32 205.3C650.986 205.265 650.649 205.281 650.32 205.35C649.902 205.44 649.538 205.693 649.306 206.052C649.074 206.411 648.995 206.847 649.085 207.265C649.175 207.683 649.428 208.048 649.787 208.279C650.146 208.511 650.582 208.59 651 208.5C649.582 209.062 648.317 209.954 647.31 211.1C646.555 212.234 646.279 213.621 646.541 214.958C646.804 216.295 647.583 217.474 648.71 218.24C649.893 218.92 651.283 219.145 652.62 218.872C653.957 218.6 655.148 217.849 655.97 216.76C655.801 217.357 655.849 217.995 656.105 218.561C656.361 219.126 656.809 219.583 657.37 219.85C662.79 222.78 665.55 218.8 666.29 214.19C667.13 209.13 668.21 205.37 662.74 202.67Z" fill="#FFE9B3"/>
<path id="Vector_72" opacity="0.15" d="M662.74 202.67C661.156 201.777 659.316 201.445 657.52 201.73C656.633 201.9 655.827 202.36 655.228 203.036C654.629 203.713 654.271 204.569 654.21 205.47L651.32 205.3C650.986 205.265 650.649 205.281 650.32 205.35C649.902 205.44 649.538 205.693 649.306 206.052C649.074 206.411 648.995 206.847 649.085 207.265C649.175 207.683 649.428 208.048 649.787 208.279C650.146 208.511 650.582 208.59 651 208.5C649.582 209.062 648.317 209.954 647.31 211.1C646.555 212.234 646.279 213.621 646.541 214.958C646.804 216.295 647.583 217.474 648.71 218.24C649.893 218.92 651.283 219.145 652.62 218.872C653.957 218.6 655.148 217.849 655.97 216.76C655.801 217.357 655.849 217.995 656.105 218.561C656.361 219.126 656.809 219.583 657.37 219.85C662.79 222.78 665.55 218.8 666.29 214.19C667.13 209.13 668.21 205.37 662.74 202.67Z" fill="black"/>
<path id="Vector_73" d="M705.75 206.11C704.166 205.216 702.325 204.888 700.53 205.18C699.643 205.347 698.836 205.803 698.237 206.479C697.638 207.154 697.28 208.009 697.22 208.91L694.34 208.74C694.006 208.705 693.669 208.722 693.34 208.79C692.949 208.913 692.618 209.176 692.409 209.528C692.2 209.881 692.129 210.298 692.21 210.7C692.316 211.096 692.567 211.438 692.914 211.659C693.26 211.879 693.676 211.962 694.08 211.89C692.663 212.455 691.399 213.345 690.39 214.49C689.638 215.625 689.363 217.011 689.625 218.347C689.887 219.683 690.665 220.863 691.79 221.63C692.972 222.311 694.361 222.537 695.698 222.267C697.034 221.996 698.226 221.247 699.05 220.16C698.882 220.756 698.93 221.392 699.186 221.956C699.443 222.52 699.89 222.975 700.45 223.24C705.87 226.17 708.63 222.19 709.37 217.58C710.14 212.57 711.22 208.81 705.75 206.11Z" fill="#FFE9B3"/>
<path id="Vector_74" opacity="0.15" d="M705.75 206.11C704.166 205.216 702.325 204.888 700.53 205.18C699.643 205.347 698.836 205.803 698.237 206.479C697.638 207.154 697.28 208.009 697.22 208.91L694.34 208.74C694.006 208.705 693.669 208.722 693.34 208.79C692.949 208.913 692.618 209.176 692.409 209.528C692.2 209.881 692.129 210.298 692.21 210.7C692.316 211.096 692.567 211.438 692.914 211.659C693.26 211.879 693.676 211.962 694.08 211.89C692.663 212.455 691.399 213.345 690.39 214.49C689.638 215.625 689.363 217.011 689.625 218.347C689.887 219.683 690.665 220.863 691.79 221.63C692.972 222.311 694.361 222.537 695.698 222.267C697.034 221.996 698.226 221.247 699.05 220.16C698.882 220.756 698.93 221.392 699.186 221.956C699.443 222.52 699.89 222.975 700.45 223.24C705.87 226.17 708.63 222.19 709.37 217.58C710.14 212.57 711.22 208.81 705.75 206.11Z" fill="black"/>
<path id="Vector_75" d="M679.75 189.11C678.166 188.216 676.325 187.888 674.53 188.18C673.643 188.347 672.836 188.803 672.237 189.479C671.638 190.154 671.28 191.009 671.22 191.91L668.34 191.74C668.006 191.705 667.669 191.722 667.34 191.79C666.949 191.913 666.618 192.176 666.409 192.528C666.2 192.881 666.129 193.298 666.21 193.7C666.316 194.096 666.567 194.438 666.914 194.659C667.26 194.879 667.676 194.962 668.08 194.89C666.663 195.455 665.399 196.345 664.39 197.49C663.638 198.625 663.363 200.011 663.625 201.347C663.887 202.683 664.665 203.863 665.79 204.63C666.972 205.311 668.361 205.537 669.698 205.267C671.034 204.996 672.226 204.247 673.05 203.16C672.882 203.756 672.93 204.392 673.186 204.956C673.443 205.52 673.89 205.975 674.45 206.24C679.87 209.17 682.63 205.19 683.37 200.58C684.14 195.57 685.22 191.81 679.75 189.11Z" fill="#FFE9B3"/>
<path id="Vector_76" opacity="0.15" d="M679.75 189.11C678.166 188.216 676.325 187.888 674.53 188.18C673.643 188.347 672.836 188.803 672.237 189.479C671.638 190.154 671.28 191.009 671.22 191.91L668.34 191.74C668.006 191.705 667.669 191.722 667.34 191.79C666.949 191.913 666.618 192.176 666.409 192.528C666.2 192.881 666.129 193.298 666.21 193.7C666.316 194.096 666.567 194.438 666.914 194.659C667.26 194.879 667.676 194.962 668.08 194.89C666.663 195.455 665.399 196.345 664.39 197.49C663.638 198.625 663.363 200.011 663.625 201.347C663.887 202.683 664.665 203.863 665.79 204.63C666.972 205.311 668.361 205.537 669.698 205.267C671.034 204.996 672.226 204.247 673.05 203.16C672.882 203.756 672.93 204.392 673.186 204.956C673.443 205.52 673.89 205.975 674.45 206.24C679.87 209.17 682.63 205.19 683.37 200.58C684.14 195.57 685.22 191.81 679.75 189.11Z" fill="black"/>
<path id="Vector_77" d="M659.75 183.11C658.166 182.216 656.325 181.888 654.53 182.18C653.643 182.347 652.836 182.803 652.237 183.479C651.638 184.154 651.28 185.009 651.22 185.91L648.34 185.74C648.006 185.705 647.669 185.722 647.34 185.79C646.949 185.913 646.618 186.176 646.409 186.528C646.2 186.881 646.129 187.298 646.21 187.7C646.316 188.096 646.567 188.438 646.914 188.659C647.26 188.879 647.676 188.962 648.08 188.89C646.663 189.455 645.399 190.345 644.39 191.49C643.638 192.625 643.363 194.011 643.625 195.347C643.887 196.683 644.665 197.863 645.79 198.63C646.972 199.311 648.361 199.537 649.698 199.267C651.034 198.996 652.226 198.247 653.05 197.16C652.882 197.756 652.93 198.392 653.186 198.956C653.443 199.52 653.89 199.975 654.45 200.24C659.87 203.17 662.63 199.19 663.37 194.58C664.14 189.57 665.22 185.81 659.75 183.11Z" fill="#FFE9B3"/>
<path id="Vector_78" opacity="0.15" d="M659.75 183.11C658.166 182.216 656.325 181.888 654.53 182.18C653.643 182.347 652.836 182.803 652.237 183.479C651.638 184.154 651.28 185.009 651.22 185.91L648.34 185.74C648.006 185.705 647.669 185.722 647.34 185.79C646.949 185.913 646.618 186.176 646.409 186.528C646.2 186.881 646.129 187.298 646.21 187.7C646.316 188.096 646.567 188.438 646.914 188.659C647.26 188.879 647.676 188.962 648.08 188.89C646.663 189.455 645.399 190.345 644.39 191.49C643.638 192.625 643.363 194.011 643.625 195.347C643.887 196.683 644.665 197.863 645.79 198.63C646.972 199.311 648.361 199.537 649.698 199.267C651.034 198.996 652.226 198.247 653.05 197.16C652.882 197.756 652.93 198.392 653.186 198.956C653.443 199.52 653.89 199.975 654.45 200.24C659.87 203.17 662.63 199.19 663.37 194.58C664.14 189.57 665.22 185.81 659.75 183.11Z" fill="black"/>
<path id="Vector_79" d="M681.75 179.11C680.166 178.216 678.325 177.888 676.53 178.18C675.643 178.347 674.836 178.803 674.237 179.479C673.638 180.154 673.28 181.009 673.22 181.91L670.34 181.74C670.006 181.705 669.669 181.722 669.34 181.79C668.949 181.913 668.618 182.176 668.409 182.528C668.2 182.881 668.129 183.298 668.21 183.7C668.316 184.096 668.567 184.438 668.914 184.659C669.26 184.879 669.676 184.962 670.08 184.89C668.663 185.455 667.399 186.345 666.39 187.49C665.638 188.625 665.363 190.011 665.625 191.347C665.887 192.683 666.665 193.863 667.79 194.63C668.972 195.311 670.361 195.537 671.698 195.267C673.034 194.996 674.226 194.247 675.05 193.16C674.882 193.756 674.93 194.392 675.186 194.956C675.443 195.52 675.89 195.975 676.45 196.24C681.87 199.17 684.63 195.19 685.37 190.58C686.14 185.57 687.22 181.81 681.75 179.11Z" fill="#FFE9B3"/>
<path id="Vector_80" opacity="0.15" d="M681.75 179.11C680.166 178.216 678.325 177.888 676.53 178.18C675.643 178.347 674.836 178.803 674.237 179.479C673.638 180.154 673.28 181.009 673.22 181.91L670.34 181.74C670.006 181.705 669.669 181.722 669.34 181.79C668.949 181.913 668.618 182.176 668.409 182.528C668.2 182.881 668.129 183.298 668.21 183.7C668.316 184.096 668.567 184.438 668.914 184.659C669.26 184.879 669.676 184.962 670.08 184.89C668.663 185.455 667.399 186.345 666.39 187.49C665.638 188.625 665.363 190.011 665.625 191.347C665.887 192.683 666.665 193.863 667.79 194.63C668.972 195.311 670.361 195.537 671.698 195.267C673.034 194.996 674.226 194.247 675.05 193.16C674.882 193.756 674.93 194.392 675.186 194.956C675.443 195.52 675.89 195.975 676.45 196.24C681.87 199.17 684.63 195.19 685.37 190.58C686.14 185.57 687.22 181.81 681.75 179.11Z" fill="black"/>
<path id="Vector_81" d="M689.75 185.11C688.166 184.216 686.325 183.888 684.53 184.18C683.643 184.347 682.836 184.803 682.237 185.479C681.638 186.154 681.28 187.009 681.22 187.91L678.34 187.74C678.006 187.705 677.669 187.722 677.34 187.79C676.949 187.913 676.618 188.176 676.409 188.528C676.2 188.881 676.129 189.298 676.21 189.7C676.316 190.096 676.567 190.438 676.914 190.659C677.26 190.879 677.676 190.962 678.08 190.89C676.663 191.455 675.399 192.345 674.39 193.49C673.638 194.625 673.363 196.011 673.625 197.347C673.887 198.683 674.665 199.863 675.79 200.63C676.972 201.311 678.361 201.537 679.698 201.267C681.034 200.996 682.226 200.247 683.05 199.16C682.882 199.756 682.93 200.392 683.186 200.956C683.443 201.52 683.89 201.975 684.45 202.24C689.87 205.17 692.63 201.19 693.37 196.58C694.14 191.57 695.22 187.81 689.75 185.11Z" fill="#FFE9B3"/>
<path id="Vector_82" opacity="0.15" d="M689.75 185.11C688.166 184.216 686.325 183.888 684.53 184.18C683.643 184.347 682.836 184.803 682.237 185.479C681.638 186.154 681.28 187.009 681.22 187.91L678.34 187.74C678.006 187.705 677.669 187.722 677.34 187.79C676.949 187.913 676.618 188.176 676.409 188.528C676.2 188.881 676.129 189.298 676.21 189.7C676.316 190.096 676.567 190.438 676.914 190.659C677.26 190.879 677.676 190.962 678.08 190.89C676.663 191.455 675.399 192.345 674.39 193.49C673.638 194.625 673.363 196.011 673.625 197.347C673.887 198.683 674.665 199.863 675.79 200.63C676.972 201.311 678.361 201.537 679.698 201.267C681.034 200.996 682.226 200.247 683.05 199.16C682.882 199.756 682.93 200.392 683.186 200.956C683.443 201.52 683.89 201.975 684.45 202.24C689.87 205.17 692.63 201.19 693.37 196.58C694.14 191.57 695.22 187.81 689.75 185.11Z" fill="black"/>
<path id="Vector_83" d="M640.75 206.11C639.166 205.216 637.325 204.888 635.53 205.18C634.643 205.347 633.836 205.803 633.237 206.479C632.638 207.154 632.28 208.009 632.22 208.91L629.34 208.74C629.006 208.705 628.669 208.722 628.34 208.79C627.949 208.913 627.618 209.176 627.409 209.528C627.2 209.881 627.129 210.298 627.21 210.7C627.316 211.096 627.567 211.438 627.914 211.659C628.26 211.879 628.676 211.962 629.08 211.89C627.663 212.455 626.399 213.345 625.39 214.49C624.638 215.625 624.363 217.011 624.625 218.347C624.887 219.683 625.665 220.863 626.79 221.63C627.972 222.311 629.361 222.537 630.698 222.267C632.034 221.996 633.226 221.247 634.05 220.16C633.882 220.756 633.93 221.392 634.186 221.956C634.443 222.52 634.89 222.975 635.45 223.24C640.87 226.17 643.63 222.19 644.37 217.58C645.14 212.57 646.22 208.81 640.75 206.11Z" fill="#FFE9B3"/>
<path id="Vector_84" opacity="0.15" d="M640.75 206.11C639.166 205.216 637.325 204.888 635.53 205.18C634.643 205.347 633.836 205.803 633.237 206.479C632.638 207.154 632.28 208.009 632.22 208.91L629.34 208.74C629.006 208.705 628.669 208.722 628.34 208.79C627.949 208.913 627.618 209.176 627.409 209.528C627.2 209.881 627.129 210.298 627.21 210.7C627.316 211.096 627.567 211.438 627.914 211.659C628.26 211.879 628.676 211.962 629.08 211.89C627.663 212.455 626.399 213.345 625.39 214.49C624.638 215.625 624.363 217.011 624.625 218.347C624.887 219.683 625.665 220.863 626.79 221.63C627.972 222.311 629.361 222.537 630.698 222.267C632.034 221.996 633.226 221.247 634.05 220.16C633.882 220.756 633.93 221.392 634.186 221.956C634.443 222.52 634.89 222.975 635.45 223.24C640.87 226.17 643.63 222.19 644.37 217.58C645.14 212.57 646.22 208.81 640.75 206.11Z" fill="black"/>
<path id="Vector_85" d="M698.75 192.11C697.166 191.216 695.325 190.888 693.53 191.18C692.643 191.347 691.836 191.803 691.237 192.479C690.638 193.154 690.28 194.009 690.22 194.91L687.34 194.74C687.006 194.705 686.669 194.722 686.34 194.79C685.949 194.913 685.618 195.176 685.409 195.528C685.2 195.881 685.129 196.298 685.21 196.7C685.316 197.096 685.567 197.438 685.914 197.659C686.26 197.879 686.676 197.962 687.08 197.89C685.663 198.455 684.399 199.345 683.39 200.49C682.638 201.625 682.363 203.011 682.625 204.347C682.887 205.683 683.665 206.863 684.79 207.63C685.972 208.311 687.361 208.537 688.698 208.267C690.034 207.996 691.226 207.247 692.05 206.16C691.882 206.756 691.93 207.392 692.186 207.956C692.443 208.52 692.89 208.975 693.45 209.24C698.87 212.17 701.63 208.19 702.37 203.58C703.14 198.57 704.22 194.81 698.75 192.11Z" fill="#FFE9B3"/>
<path id="Vector_86" opacity="0.15" d="M698.75 192.11C697.166 191.216 695.325 190.888 693.53 191.18C692.643 191.347 691.836 191.803 691.237 192.479C690.638 193.154 690.28 194.009 690.22 194.91L687.34 194.74C687.006 194.705 686.669 194.722 686.34 194.79C685.949 194.913 685.618 195.176 685.409 195.528C685.2 195.881 685.129 196.298 685.21 196.7C685.316 197.096 685.567 197.438 685.914 197.659C686.26 197.879 686.676 197.962 687.08 197.89C685.663 198.455 684.399 199.345 683.39 200.49C682.638 201.625 682.363 203.011 682.625 204.347C682.887 205.683 683.665 206.863 684.79 207.63C685.972 208.311 687.361 208.537 688.698 208.267C690.034 207.996 691.226 207.247 692.05 206.16C691.882 206.756 691.93 207.392 692.186 207.956C692.443 208.52 692.89 208.975 693.45 209.24C698.87 212.17 701.63 208.19 702.37 203.58C703.14 198.57 704.22 194.81 698.75 192.11Z" fill="black"/>
<path id="Vector_87" d="M717.75 202.11C716.166 201.216 714.325 200.888 712.53 201.18C711.643 201.347 710.836 201.803 710.237 202.479C709.638 203.154 709.28 204.009 709.22 204.91L706.34 204.74C706.006 204.705 705.669 204.722 705.34 204.79C704.949 204.913 704.618 205.176 704.409 205.528C704.2 205.881 704.129 206.298 704.21 206.7C704.316 207.096 704.567 207.438 704.914 207.659C705.26 207.879 705.676 207.962 706.08 207.89C704.663 208.455 703.399 209.345 702.39 210.49C701.638 211.625 701.363 213.011 701.625 214.347C701.887 215.683 702.665 216.863 703.79 217.63C704.972 218.311 706.361 218.537 707.698 218.267C709.034 217.996 710.226 217.247 711.05 216.16C710.882 216.756 710.93 217.392 711.186 217.956C711.443 218.52 711.89 218.975 712.45 219.24C717.87 222.17 720.63 218.19 721.37 213.58C722.14 208.57 723.22 204.81 717.75 202.11Z" fill="#FFE9B3"/>
<path id="Vector_88" opacity="0.15" d="M717.75 202.11C716.166 201.216 714.325 200.888 712.53 201.18C711.643 201.347 710.836 201.803 710.237 202.479C709.638 203.154 709.28 204.009 709.22 204.91L706.34 204.74C706.006 204.705 705.669 204.722 705.34 204.79C704.949 204.913 704.618 205.176 704.409 205.528C704.2 205.881 704.129 206.298 704.21 206.7C704.316 207.096 704.567 207.438 704.914 207.659C705.26 207.879 705.676 207.962 706.08 207.89C704.663 208.455 703.399 209.345 702.39 210.49C701.638 211.625 701.363 213.011 701.625 214.347C701.887 215.683 702.665 216.863 703.79 217.63C704.972 218.311 706.361 218.537 707.698 218.267C709.034 217.996 710.226 217.247 711.05 216.16C710.882 216.756 710.93 217.392 711.186 217.956C711.443 218.52 711.89 218.975 712.45 219.24C717.87 222.17 720.63 218.19 721.37 213.58C722.14 208.57 723.22 204.81 717.75 202.11Z" fill="black"/>
<path id="Vector_89" d="M701.75 180.11C700.166 179.216 698.325 178.888 696.53 179.18C695.643 179.347 694.836 179.803 694.237 180.479C693.638 181.154 693.28 182.009 693.22 182.91L690.34 182.74C690.006 182.705 689.669 182.722 689.34 182.79C688.949 182.913 688.618 183.176 688.409 183.528C688.2 183.881 688.129 184.298 688.21 184.7C688.316 185.096 688.567 185.438 688.914 185.659C689.26 185.879 689.676 185.962 690.08 185.89C688.663 186.455 687.399 187.345 686.39 188.49C685.638 189.625 685.363 191.011 685.625 192.347C685.887 193.683 686.665 194.863 687.79 195.63C688.972 196.311 690.361 196.537 691.698 196.267C693.034 195.996 694.226 195.247 695.05 194.16C694.882 194.756 694.93 195.392 695.186 195.956C695.443 196.52 695.89 196.975 696.45 197.24C701.87 200.17 704.63 196.19 705.37 191.58C706.14 186.57 707.22 182.81 701.75 180.11Z" fill="#FFE9B3"/>
<path id="Vector_90" opacity="0.15" d="M701.75 180.11C700.166 179.216 698.325 178.888 696.53 179.18C695.643 179.347 694.836 179.803 694.237 180.479C693.638 181.154 693.28 182.009 693.22 182.91L690.34 182.74C690.006 182.705 689.669 182.722 689.34 182.79C688.949 182.913 688.618 183.176 688.409 183.528C688.2 183.881 688.129 184.298 688.21 184.7C688.316 185.096 688.567 185.438 688.914 185.659C689.26 185.879 689.676 185.962 690.08 185.89C688.663 186.455 687.399 187.345 686.39 188.49C685.638 189.625 685.363 191.011 685.625 192.347C685.887 193.683 686.665 194.863 687.79 195.63C688.972 196.311 690.361 196.537 691.698 196.267C693.034 195.996 694.226 195.247 695.05 194.16C694.882 194.756 694.93 195.392 695.186 195.956C695.443 196.52 695.89 196.975 696.45 197.24C701.87 200.17 704.63 196.19 705.37 191.58C706.14 186.57 707.22 182.81 701.75 180.11Z" fill="black"/>
<path id="Vector_91" d="M715.74 204.19C716.656 202.618 717.009 200.78 716.74 198.98C716.583 198.09 716.134 197.278 715.464 196.671C714.794 196.065 713.941 195.698 713.04 195.63L713.25 192.75C713.301 192.419 713.301 192.081 713.25 191.75C713.203 191.546 713.117 191.354 712.996 191.184C712.875 191.014 712.722 190.869 712.545 190.758C712.368 190.647 712.171 190.572 711.965 190.537C711.759 190.502 711.549 190.508 711.345 190.555C711.141 190.602 710.949 190.688 710.779 190.809C710.609 190.93 710.464 191.083 710.353 191.26C710.242 191.437 710.167 191.634 710.132 191.84C710.097 192.046 710.103 192.256 710.15 192.46C709.6 191.036 708.723 189.762 707.59 188.74C706.463 187.974 705.079 187.683 703.739 187.93C702.399 188.177 701.21 188.942 700.43 190.06C699.736 191.236 699.495 192.624 699.753 193.965C700.011 195.305 700.749 196.506 701.83 197.34C701.235 197.166 700.597 197.208 700.03 197.459C699.463 197.71 699.002 198.153 698.73 198.71C695.73 204.1 699.73 206.9 704.29 207.71C709.24 208.5 713 209.63 715.74 204.19Z" fill="#FFE9B3"/>
<path id="Vector_92" d="M715.74 188.19C716.656 186.618 717.009 184.78 716.74 182.98C716.583 182.09 716.134 181.278 715.464 180.671C714.794 180.065 713.941 179.698 713.04 179.63L713.25 176.75C713.301 176.419 713.301 176.081 713.25 175.75C713.156 175.339 712.902 174.982 712.545 174.758C712.188 174.534 711.756 174.461 711.345 174.555C710.934 174.649 710.577 174.903 710.353 175.26C710.129 175.617 710.056 176.049 710.15 176.46C709.6 175.036 708.723 173.762 707.59 172.74C706.463 171.974 705.079 171.683 703.739 171.93C702.399 172.177 701.21 172.942 700.43 174.06C699.736 175.236 699.495 176.624 699.753 177.965C700.011 179.305 700.749 180.506 701.83 181.34C701.235 181.166 700.597 181.208 700.03 181.459C699.463 181.71 699.002 182.153 698.73 182.71C695.73 188.1 699.73 190.9 704.29 191.71C709.24 192.5 713 193.63 715.74 188.19Z" fill="#FFE9B3"/>
<path id="Vector_93" d="M698.74 209.19C699.656 207.618 700.009 205.78 699.74 203.98C699.583 203.09 699.134 202.278 698.464 201.671C697.794 201.065 696.941 200.698 696.04 200.63L696.25 197.75C696.301 197.419 696.301 197.081 696.25 196.75C696.156 196.339 695.902 195.982 695.545 195.758C695.188 195.534 694.756 195.461 694.345 195.555C693.934 195.649 693.577 195.903 693.353 196.26C693.129 196.617 693.056 197.049 693.15 197.46C692.6 196.036 691.723 194.762 690.59 193.74C689.463 192.974 688.079 192.683 686.739 192.93C685.399 193.177 684.21 193.942 683.43 195.06C682.736 196.236 682.495 197.624 682.753 198.965C683.011 200.305 683.749 201.506 684.83 202.34C684.235 202.166 683.597 202.208 683.03 202.459C682.463 202.71 682.002 203.153 681.73 203.71C678.73 209.1 682.73 211.9 687.29 212.71C692.24 213.5 696 214.63 698.74 209.19Z" fill="#FFE9B3"/>
<path id="Vector_94" d="M717.74 227.19C718.656 225.618 719.009 223.78 718.74 221.98C718.583 221.09 718.134 220.278 717.464 219.671C716.794 219.065 715.941 218.698 715.04 218.63L715.25 215.75C715.301 215.419 715.301 215.081 715.25 214.75C715.156 214.339 714.902 213.982 714.545 213.758C714.188 213.534 713.756 213.461 713.345 213.555C712.934 213.649 712.577 213.903 712.353 214.26C712.129 214.617 712.056 215.049 712.15 215.46C711.6 214.036 710.723 212.762 709.59 211.74C708.463 210.974 707.079 210.683 705.739 210.93C704.399 211.177 703.21 211.942 702.43 213.06C701.736 214.236 701.495 215.624 701.753 216.965C702.011 218.305 702.749 219.506 703.83 220.34C703.235 220.166 702.597 220.208 702.03 220.459C701.463 220.71 701.002 221.153 700.73 221.71C697.73 227.1 701.73 229.9 706.29 230.71C711.24 231.5 715 232.63 717.74 227.19Z" fill="#FFE9B3"/>
<path id="Vector_95" d="M681.74 234.19C682.656 232.618 683.009 230.78 682.74 228.98C682.583 228.09 682.134 227.278 681.464 226.671C680.794 226.065 679.941 225.698 679.04 225.63L679.25 222.75C679.301 222.419 679.301 222.081 679.25 221.75C679.156 221.339 678.902 220.982 678.545 220.758C678.188 220.534 677.756 220.461 677.345 220.555C676.934 220.649 676.577 220.903 676.353 221.26C676.129 221.617 676.056 222.049 676.15 222.46C675.6 221.036 674.723 219.762 673.59 218.74C672.463 217.974 671.079 217.683 669.739 217.93C668.399 218.177 667.21 218.942 666.43 220.06C665.736 221.236 665.495 222.624 665.753 223.965C666.011 225.305 666.749 226.506 667.83 227.34C667.235 227.166 666.597 227.208 666.03 227.459C665.463 227.71 665.002 228.153 664.73 228.71C661.73 234.1 665.73 236.9 670.29 237.71C675.24 238.5 679 239.63 681.74 234.19Z" fill="#FFE9B3"/>
<path id="Vector_96" d="M673.74 193.19C674.656 191.618 675.009 189.78 674.74 187.98C674.583 187.09 674.134 186.278 673.464 185.671C672.794 185.065 671.941 184.698 671.04 184.63L671.25 181.75C671.301 181.419 671.301 181.081 671.25 180.75C671.156 180.339 670.902 179.982 670.545 179.758C670.188 179.534 669.756 179.461 669.345 179.555C668.934 179.649 668.577 179.903 668.353 180.26C668.129 180.617 668.056 181.049 668.15 181.46C667.6 180.036 666.723 178.762 665.59 177.74C664.463 176.974 663.079 176.683 661.739 176.93C660.399 177.177 659.21 177.942 658.43 179.06C657.736 180.236 657.495 181.624 657.753 182.965C658.011 184.305 658.749 185.506 659.83 186.34C659.235 186.166 658.597 186.208 658.03 186.459C657.463 186.71 657.002 187.153 656.73 187.71C653.73 193.1 657.73 195.9 662.29 196.71C667.24 197.5 671 198.63 673.74 193.19Z" fill="#FFE9B3"/>
<path id="Vector_97" d="M694.74 188.19C695.656 186.618 696.009 184.78 695.74 182.98C695.583 182.09 695.134 181.278 694.464 180.671C693.794 180.065 692.941 179.698 692.04 179.63L692.25 176.75C692.301 176.419 692.301 176.081 692.25 175.75C692.156 175.339 691.902 174.982 691.545 174.758C691.188 174.534 690.756 174.461 690.345 174.555C689.934 174.649 689.577 174.903 689.353 175.26C689.129 175.617 689.056 176.049 689.15 176.46C688.6 175.036 687.723 173.762 686.59 172.74C685.463 171.974 684.079 171.683 682.739 171.93C681.399 172.177 680.21 172.942 679.43 174.06C678.736 175.236 678.495 176.624 678.753 177.965C679.011 179.305 679.749 180.506 680.83 181.34C680.235 181.166 679.597 181.208 679.03 181.459C678.463 181.71 678.002 182.153 677.73 182.71C674.73 188.1 678.73 190.9 683.29 191.71C688.24 192.5 692 193.63 694.74 188.19Z" fill="#FFE9B3"/>
<path id="Vector_98" d="M652.74 207.19C653.656 205.618 654.009 203.78 653.74 201.98C653.583 201.09 653.134 200.278 652.464 199.671C651.794 199.065 650.941 198.698 650.04 198.63L650.25 195.75C650.301 195.419 650.301 195.081 650.25 194.75C650.156 194.339 649.902 193.982 649.545 193.758C649.188 193.534 648.756 193.461 648.345 193.555C647.934 193.649 647.577 193.903 647.353 194.26C647.129 194.617 647.056 195.049 647.15 195.46C646.6 194.036 645.723 192.762 644.59 191.74C643.463 190.974 642.079 190.683 640.739 190.93C639.399 191.177 638.21 191.942 637.43 193.06C636.736 194.236 636.495 195.624 636.753 196.965C637.011 198.305 637.749 199.506 638.83 200.34C638.235 200.166 637.597 200.208 637.03 200.459C636.463 200.71 636.002 201.153 635.73 201.71C632.73 207.1 636.73 209.9 641.29 210.71C646.24 211.5 650 212.63 652.74 207.19Z" fill="#FFE9B3"/>
<!--TODO right girl right hand-->
    <path id="Vector_99" d="M636.81 253.06C642.01 252.64 647.14 251.31 652.36 251.38C659.19 251.47 665.76 253.94 671.98 256.76C673.807 257.465 675.483 258.51 676.92 259.84C677.945 261.022 678.692 262.419 679.104 263.929C679.516 265.438 679.583 267.021 679.3 268.56C678.715 271.637 677.496 274.559 675.72 277.14C673.9 280.03 671.65 282.88 668.48 284.14C666.707 284.752 664.846 285.073 662.97 285.09C655.14 285.52 647.16 285.09 639.73 282.58C635.92 281.28 632.31 279.46 628.58 277.92C616.69 273 603.83 271.06 591.2 268.58C590.558 268.503 589.946 268.266 589.42 267.89C586.79 265.62 592.5 257.44 593.84 255.15C596.1 251.26 598.15 250.84 602.73 250.73C614.17 250.44 625.34 253.77 636.81 253.06Z" fill="#A0616A"/>
<path id="Vector_100" d="M725.78 280.73C722.16 278.95 718.91 276.49 715.32 274.64C710.799 272.315 705.829 270.995 700.75 270.77C697.46 270.62 693.88 271.06 691.49 273.33C688.08 276.57 688.49 282.08 689.61 286.65C691.31 293.5 694.73 300.75 701.3 303.34C703.881 304.203 706.579 304.665 709.3 304.71C721.47 305.55 734.14 306.31 745.42 301.71C746.247 301.453 746.955 300.91 747.42 300.18C747.91 299.18 747.42 297.98 746.92 296.97C745.12 293.35 742.27 285.76 738.79 283.5C735.55 281.33 729.82 282.71 725.78 280.73Z" fill="#A0616A"/>
<path id="Vector_101" opacity="0.1" d="M754.38 226.27C761.046 236.845 766.526 248.124 770.72 259.9C771.893 262.796 772.569 265.869 772.72 268.99C772.72 272.46 771.51 275.82 770.24 279.1C766.194 289.595 761.498 299.828 756.18 309.74C754.58 312.74 752.75 315.87 749.58 317.52C746.25 319.26 742.15 318.99 738.34 318.52C728.793 317.475 719.325 315.798 710 313.5C715.87 313.69 721.17 309.29 723.88 304.5C726.59 299.71 727.19 294.23 727.64 288.88C728.052 285.999 727.93 283.067 727.28 280.23C726.9 278.766 726.173 277.415 725.16 276.292C724.147 275.169 722.877 274.308 721.46 273.78C721.19 271.17 723.68 268.98 726.25 267.78C728.82 266.58 731.74 265.91 733.83 264.11C736.91 261.47 737.35 257.06 736.34 253.32C735.33 249.58 733.13 246.2 731.57 242.61C729.38 237.61 740.68 232.35 741.13 226.95C741.23 225.73 740.37 227.95 741.13 226.95C741.89 225.95 746.61 229.42 747.68 228.95C754.71 225.91 750.49 220.09 754.38 226.27Z" fill="black"/>
<path id="Vector_102" d="M756.56 226.27C763.225 236.847 768.708 248.125 772.91 259.9C774.088 262.795 774.764 265.868 774.91 268.99C774.91 272.46 773.7 275.82 772.44 279.1C768.39 289.593 763.694 299.826 758.38 309.74C756.78 312.74 754.95 315.87 751.78 317.52C748.45 319.26 744.34 318.99 740.54 318.52C730.989 317.477 721.518 315.8 712.19 313.5C718.05 313.69 723.36 309.29 726.06 304.5C728.76 299.71 729.38 294.23 729.83 288.88C730.237 285.999 730.115 283.067 729.47 280.23C729.087 278.767 728.359 277.418 727.346 276.296C726.333 275.173 725.066 274.311 723.65 273.78C723.37 271.17 725.87 268.98 728.44 267.78C731.01 266.58 733.93 265.91 736.02 264.11C739.09 261.47 739.53 257.06 738.52 253.32C737.51 249.58 735.31 246.2 733.75 242.61C731.568 237.603 730.654 232.135 731.09 226.69C731.111 225.444 731.478 224.229 732.15 223.18C732.895 222.288 733.856 221.599 734.94 221.18C742 218.18 752.67 220.09 756.56 226.27Z" fill="#F98A8D"/>
<path id="Vector_103" opacity="0.1" d="M542.8 216.35C536.31 222.35 529.61 228.69 526.45 236.96C524.73 241.47 524.16 246.33 523.6 251.13C522.66 259.31 521.81 268.07 525.6 275.37C529.8 283.37 538.6 287.66 546.86 291.29C549.716 292.632 552.676 293.742 555.71 294.61C559.685 295.498 563.738 295.994 567.81 296.09L609.5 298.41C604.06 292.93 600.58 284.35 601.32 276.66C601.99 269.79 605.32 263.49 608.67 257.48C610.41 254.38 612.38 251.12 615.59 249.59C602.007 246.588 588.041 245.711 574.19 246.99C573.26 247.07 572.19 247.1 571.58 246.36C571.276 245.896 571.135 245.343 571.18 244.79C571.18 238.58 575.82 233.42 577.74 227.52C580.81 218.06 570.36 223.25 560.96 220C551.56 216.75 544.72 206.59 542.8 216.35Z" fill="black"/>
<path id="Vector_104" d="M539.8 216.35C533.31 222.35 526.61 228.69 523.45 236.96C521.73 241.47 521.16 246.33 520.6 251.13C519.66 259.31 518.81 268.07 522.6 275.37C526.8 283.37 535.6 287.66 543.86 291.29C546.716 292.632 549.676 293.742 552.71 294.61C556.685 295.499 560.738 295.994 564.81 296.09L606.5 298.41C601.06 292.93 597.58 284.35 598.32 276.66C598.99 269.79 602.32 263.49 605.67 257.48C607.41 254.38 609.38 251.12 612.59 249.59C599.007 246.588 585.041 245.711 571.19 246.99C570.26 247.07 569.19 247.1 568.58 246.36C568.276 245.896 568.135 245.343 568.18 244.79C568.18 238.58 572.82 233.42 574.74 227.52C577.81 218.06 572.47 206.52 563.06 203.25C553.65 199.98 541.72 206.59 539.8 216.35Z" fill="#F98A8D"/>
<path id="Vector_105" d="M644.5 109C672.39 109 695 99.598 695 88C695 76.402 672.39 67 644.5 67C616.61 67 594 76.402 594 88C594 99.598 616.61 109 644.5 109Z" fill="#2F2E41"/>
<path id="Vector_106" opacity="0.1" d="M643.5 100C619.33 100 599.13 92.93 594.17 83.5C593.418 84.8816 593.016 86.4268 593 88C593 99.6 615.61 109 643.5 109C671.39 109 694 99.6 694 88C693.984 86.4268 693.582 84.8816 692.83 83.5C687.87 92.93 667.67 100 643.5 100Z" fill="black"/>
<path id="Vector_107" d="M711.75 102.11C710.166 101.216 708.325 100.888 706.53 101.18C705.643 101.347 704.836 101.803 704.237 102.479C703.638 103.154 703.28 104.009 703.22 104.91L700.34 104.74C700.006 104.705 699.669 104.722 699.34 104.79C698.949 104.913 698.618 105.176 698.409 105.528C698.2 105.881 698.129 106.298 698.21 106.7C698.316 107.096 698.567 107.438 698.914 107.659C699.26 107.879 699.676 107.962 700.08 107.89C698.663 108.455 697.399 109.345 696.39 110.49C695.638 111.625 695.363 113.011 695.625 114.347C695.887 115.683 696.665 116.863 697.79 117.63C698.972 118.311 700.361 118.537 701.698 118.267C703.034 117.996 704.226 117.247 705.05 116.16C704.882 116.756 704.93 117.392 705.186 117.956C705.443 118.52 705.89 118.975 706.45 119.24C711.87 122.17 714.63 118.19 715.37 113.58C716.14 108.57 717.22 104.81 711.75 102.11Z" fill="#FFE9B3"/>
    <!--TODO:-->
    <path id="popcorn3" opacity="0.15" d="M711.75 102.11C710.166 101.216 708.325 100.888 706.53 101.18C705.643 101.347 704.836 101.803 704.237 102.479C703.638 103.154 703.28 104.009 703.22 104.91L700.34 104.74C700.006 104.705 699.669 104.722 699.34 104.79C698.949 104.913 698.618 105.176 698.409 105.528C698.2 105.881 698.129 106.298 698.21 106.7C698.316 107.096 698.567 107.438 698.914 107.659C699.26 107.879 699.676 107.962 700.08 107.89C698.663 108.455 697.399 109.345 696.39 110.49C695.638 111.625 695.363 113.011 695.625 114.347C695.887 115.683 696.665 116.863 697.79 117.63C698.972 118.311 700.361 118.537 701.698 118.267C703.034 117.996 704.226 117.247 705.05 116.16C704.882 116.756 704.93 117.392 705.186 117.956C705.443 118.52 705.89 118.975 706.45 119.24C711.87 122.17 714.63 118.19 715.37 113.58C716.14 108.57 717.22 104.81 711.75 102.11Z" fill="black"/>
<path id="Vector_108" d="M759.75 178.11C758.166 177.216 756.325 176.888 754.53 177.18C753.643 177.347 752.836 177.803 752.237 178.479C751.638 179.154 751.28 180.009 751.22 180.91L748.34 180.74C748.006 180.705 747.669 180.722 747.34 180.79C746.949 180.913 746.618 181.176 746.409 181.528C746.2 181.881 746.129 182.298 746.21 182.7C746.316 183.096 746.567 183.438 746.914 183.659C747.26 183.879 747.676 183.962 748.08 183.89C746.663 184.455 745.399 185.345 744.39 186.49C743.638 187.625 743.363 189.011 743.625 190.347C743.887 191.683 744.665 192.863 745.79 193.63C746.972 194.311 748.361 194.537 749.698 194.267C751.034 193.996 752.226 193.247 753.05 192.16C752.882 192.756 752.93 193.392 753.186 193.956C753.443 194.52 753.89 194.975 754.45 195.24C759.87 198.17 762.63 194.19 763.37 189.58C764.14 184.57 765.22 180.81 759.75 178.11Z" fill="#FFE9B3"/>
<!--TODO:-->
    <path id="popcorn4" opacity="0.15" d="M759.75 178.11C758.166 177.216 756.325 176.888 754.53 177.18C753.643 177.347 752.836 177.803 752.237 178.479C751.638 179.154 751.28 180.009 751.22 180.91L748.34 180.74C748.006 180.705 747.669 180.722 747.34 180.79C746.949 180.913 746.618 181.176 746.409 181.528C746.2 181.881 746.129 182.298 746.21 182.7C746.316 183.096 746.567 183.438 746.914 183.659C747.26 183.879 747.676 183.962 748.08 183.89C746.663 184.455 745.399 185.345 744.39 186.49C743.638 187.625 743.363 189.011 743.625 190.347C743.887 191.683 744.665 192.863 745.79 193.63C746.972 194.311 748.361 194.537 749.698 194.267C751.034 193.996 752.226 193.247 753.05 192.16C752.882 192.756 752.93 193.392 753.186 193.956C753.443 194.52 753.89 194.975 754.45 195.24C759.87 198.17 762.63 194.19 763.37 189.58C764.14 184.57 765.22 180.81 759.75 178.11Z" fill="black"/>
<path id="Vector_109" d="M815.75 259.11C814.166 258.216 812.325 257.888 810.53 258.18C809.643 258.347 808.836 258.803 808.237 259.479C807.638 260.154 807.28 261.009 807.22 261.91L804.34 261.74C804.006 261.705 803.669 261.722 803.34 261.79C802.949 261.913 802.618 262.176 802.409 262.528C802.2 262.881 802.129 263.298 802.21 263.7C802.316 264.096 802.567 264.438 802.914 264.659C803.26 264.879 803.676 264.962 804.08 264.89C802.663 265.455 801.399 266.345 800.39 267.49C799.638 268.625 799.363 270.011 799.625 271.347C799.887 272.683 800.665 273.863 801.79 274.63C802.972 275.311 804.361 275.537 805.698 275.267C807.034 274.996 808.226 274.247 809.05 273.16C808.882 273.756 808.93 274.392 809.186 274.956C809.443 275.52 809.89 275.975 810.45 276.24C815.87 279.17 818.63 275.19 819.37 270.58C820.14 265.57 821.22 261.81 815.75 259.11Z" fill="#FFE9B3"/>
<path id="Vector_110" opacity="0.15" d="M815.75 259.11C814.166 258.216 812.325 257.888 810.53 258.18C809.643 258.347 808.836 258.803 808.237 259.479C807.638 260.154 807.28 261.009 807.22 261.91L804.34 261.74C804.006 261.705 803.669 261.722 803.34 261.79C802.949 261.913 802.618 262.176 802.409 262.528C802.2 262.881 802.129 263.298 802.21 263.7C802.316 264.096 802.567 264.438 802.914 264.659C803.26 264.879 803.676 264.962 804.08 264.89C802.663 265.455 801.399 266.345 800.39 267.49C799.638 268.625 799.363 270.011 799.625 271.347C799.887 272.683 800.665 273.863 801.79 274.63C802.972 275.311 804.361 275.537 805.698 275.267C807.034 274.996 808.226 274.247 809.05 273.16C808.882 273.756 808.93 274.392 809.186 274.956C809.443 275.52 809.89 275.975 810.45 276.24C815.87 279.17 818.63 275.19 819.37 270.58C820.14 265.57 821.22 261.81 815.75 259.11Z" fill="black"/>
    <!--TODO:-->
    <path id="popcorn2" d="M729.74 80.19C730.656 78.6176 731.009 76.7799 730.74 74.98C730.583 74.0901 730.134 73.2778 729.464 72.6713C728.794 72.0647 727.941 71.6984 727.04 71.63L727.25 68.75C727.301 68.4186 727.301 68.0814 727.25 67.75C727.156 67.3389 726.902 66.9821 726.545 66.758C726.188 66.5339 725.756 66.4608 725.345 66.555C724.934 66.6491 724.577 66.9027 724.353 67.26C724.129 67.6173 724.056 68.0489 724.15 68.46C723.6 67.0364 722.723 65.7621 721.59 64.74C720.463 63.9739 719.079 63.6828 717.739 63.9299C716.399 64.177 715.21 64.9423 714.43 66.06C713.736 67.2356 713.495 68.6242 713.753 69.9648C714.011 71.3054 714.749 72.5057 715.83 73.34C715.235 73.1662 714.597 73.2084 714.03 73.4591C713.463 73.7097 713.002 74.1528 712.73 74.71C709.73 80.1 713.73 82.9 718.29 83.71C723.24 84.5 727 85.63 729.74 80.19Z" fill="#FFE9B3"/>
    <!--TODO:-->
    <path id="popcorn1" d="M723.74 45.19C724.656 43.6176 725.009 41.7799 724.74 39.98C724.583 39.0901 724.134 38.2778 723.464 37.6713C722.794 37.0647 721.941 36.6984 721.04 36.63L721.25 33.75C721.301 33.4186 721.301 33.0814 721.25 32.75C721.156 32.3389 720.902 31.9821 720.545 31.758C720.188 31.5339 719.756 31.4608 719.345 31.555C718.934 31.6491 718.577 31.9028 718.353 32.26C718.129 32.6173 718.056 33.0489 718.15 33.46C717.6 32.0364 716.723 30.7621 715.59 29.74C714.463 28.9739 713.079 28.6829 711.739 28.9299C710.399 29.177 709.21 29.9423 708.43 31.06C707.736 32.2356 707.495 33.6242 707.753 34.9648C708.011 36.3054 708.749 37.5057 709.83 38.34C709.235 38.1662 708.597 38.2084 708.03 38.4591C707.463 38.7098 707.002 39.1528 706.73 39.71C703.73 45.1 707.73 47.9 712.29 48.71C717.24 49.5 721 50.63 723.74 45.19Z" fill="#FFE9B3"/>
<path id="Vector_111" d="M573.75 333.11C572.166 332.216 570.325 331.888 568.53 332.18C567.643 332.347 566.836 332.803 566.237 333.479C565.638 334.154 565.28 335.009 565.22 335.91L562.34 335.74C562.009 335.689 561.671 335.689 561.34 335.74C560.949 335.863 560.618 336.126 560.409 336.478C560.2 336.831 560.129 337.248 560.21 337.65C560.316 338.046 560.567 338.388 560.914 338.609C561.26 338.829 561.676 338.912 562.08 338.84C560.663 339.405 559.399 340.296 558.39 341.44C557.638 342.575 557.363 343.961 557.625 345.297C557.887 346.633 558.665 347.813 559.79 348.58C560.972 349.261 562.361 349.487 563.698 349.217C565.034 348.946 566.226 348.197 567.05 347.11C566.882 347.706 566.93 348.342 567.186 348.906C567.443 349.47 567.89 349.925 568.45 350.19C573.87 353.12 576.63 349.19 577.37 344.53C578.14 339.57 579.22 335.81 573.75 333.11Z" fill="#FFE9B3"/>
<path id="Vector_112" opacity="0.15" d="M573.75 333.11C572.166 332.216 570.325 331.888 568.53 332.18C567.643 332.347 566.836 332.803 566.237 333.479C565.638 334.154 565.28 335.009 565.22 335.91L562.34 335.74C562.009 335.689 561.671 335.689 561.34 335.74C560.949 335.863 560.618 336.126 560.409 336.478C560.2 336.831 560.129 337.248 560.21 337.65C560.316 338.046 560.567 338.388 560.914 338.609C561.26 338.829 561.676 338.912 562.08 338.84C560.663 339.405 559.399 340.296 558.39 341.44C557.638 342.575 557.363 343.961 557.625 345.297C557.887 346.633 558.665 347.813 559.79 348.58C560.972 349.261 562.361 349.487 563.698 349.217C565.034 348.946 566.226 348.197 567.05 347.11C566.882 347.706 566.93 348.342 567.186 348.906C567.443 349.47 567.89 349.925 568.45 350.19C573.87 353.12 576.63 349.19 577.37 344.53C578.14 339.57 579.22 335.81 573.75 333.11Z" fill="black"/>
<path id="Vector_113" d="M537.74 331.19C538.656 329.618 539.009 327.78 538.74 325.98C538.583 325.09 538.134 324.278 537.464 323.671C536.794 323.065 535.941 322.698 535.04 322.63L535.25 319.75C535.301 319.419 535.301 319.081 535.25 318.75C535.156 318.339 534.902 317.982 534.545 317.758C534.188 317.534 533.756 317.461 533.345 317.555C532.934 317.649 532.577 317.903 532.353 318.26C532.129 318.617 532.056 319.049 532.15 319.46C531.6 318.036 530.723 316.762 529.59 315.74C528.463 314.974 527.079 314.683 525.739 314.93C524.399 315.177 523.21 315.942 522.43 317.06C521.736 318.236 521.495 319.624 521.753 320.965C522.011 322.305 522.749 323.506 523.83 324.34C523.235 324.166 522.597 324.208 522.03 324.459C521.463 324.71 521.002 325.153 520.73 325.71C517.73 331.1 521.73 333.9 526.29 334.71C531.24 335.5 535 336.63 537.74 331.19Z" fill="#FFE9B3"/>
    <!--TODO:-->
    <path id="popcorn5" d="M585.74 276.19C586.656 274.618 587.009 272.78 586.74 270.98C586.583 270.09 586.134 269.278 585.464 268.671C584.794 268.065 583.941 267.698 583.04 267.63L583.25 264.75C583.301 264.419 583.301 264.081 583.25 263.75C583.156 263.339 582.902 262.982 582.545 262.758C582.188 262.534 581.756 262.461 581.345 262.555C580.934 262.649 580.577 262.903 580.353 263.26C580.129 263.617 580.056 264.049 580.15 264.46C579.6 263.036 578.723 261.762 577.59 260.74C576.463 259.974 575.079 259.683 573.739 259.93C572.399 260.177 571.21 260.942 570.43 262.06C569.736 263.236 569.495 264.624 569.753 265.965C570.011 267.305 570.749 268.506 571.83 269.34C571.235 269.166 570.597 269.208 570.03 269.459C569.463 269.71 569.002 270.153 568.73 270.71C565.73 276.1 569.73 278.9 574.29 279.71C579.24 280.5 583 281.63 585.74 276.19Z" fill="#FFE9B3"/>
<path id="Vector_114" d="M508.91 294.35C499.17 291.86 489.03 289.35 479.19 291.35C474.81 292.24 470.67 294 466.41 295.35C455.92 298.601 444.832 299.446 433.971 297.824C423.109 296.202 412.753 292.154 403.67 285.98C393.47 278.93 382.87 268.65 370.79 271.44C367.54 272.2 364.53 273.9 361.21 274.27C354.98 274.98 349.21 270.94 343.03 269.99C332.39 268.36 322.72 275.82 314.54 282.82L271.41 319.73C268.14 322.53 264.54 326.23 265.41 330.43C266.74 336.6 276.19 337.43 278.62 343.28C280.38 347.47 277.47 352.35 273.62 354.74C269.77 357.13 265.11 357.74 260.79 359.19C254.263 361.377 248.412 365.215 243.807 370.332C239.202 375.448 235.999 381.669 234.51 388.39C233.75 391.97 233.51 395.69 232.1 399.07C230.58 402.75 227.83 405.77 225.8 409.19C216.92 424.09 222.75 443.86 216.01 459.84C212.44 468.32 205.29 476.52 207.55 485.43C209.61 493.51 218.48 497.64 226.55 499.78C227.5 505.28 225.55 509.16 221.55 513.11C255.1 526.9 291.11 540.98 326.7 533.93C338.91 531.52 350.8 526.63 363.24 526.83C372.07 526.97 380.8 529.69 389.61 529.07C408.2 527.76 425.27 511.87 443.28 516.64C437.85 517.01 435.84 524.95 439.04 529.36C442.24 533.77 448.13 535.18 453.55 535.7C458.97 536.22 464.71 536.26 469.41 539.02C465.85 546.43 453.1 549.02 454.33 557.17C454.78 560.11 457.16 562.34 459.52 564.17C483.77 582.74 517.17 580.96 547.52 584.17C569.9 586.51 591.84 591.98 614.15 594.9C649.79 599.55 685.92 597.65 721.8 595.73C728.31 595.38 735.61 594.66 739.8 589.66C745.36 583 742.27 573.13 741.57 564.49C738.85 530.68 775.83 507.41 786.19 475.11C790.19 462.5 790.02 448.95 789.3 435.72C787.69 405.88 783.02 374.4 764 351.36C748.34 332.36 724.93 321.66 701.62 313.82C686.78 308.82 671.23 304.71 655.62 306.18C629.42 308.65 602.95 326.54 578.76 316.18C572.36 313.44 566.91 308.91 560.83 305.53C544.85 296.5 526.72 298.9 508.91 294.35Z" fill="#F9A826"/>
<g id="Group" opacity="0.1">
<path id="Vector_115" opacity="0.1" d="M644.21 568.86C621.9 565.94 600 560.5 577.58 558.13C547.2 554.95 513.8 556.73 489.58 538.13C487.22 536.32 484.84 534.13 484.39 531.13C483.16 523 495.91 520.39 499.47 512.98C494.77 510.22 489.04 510.19 483.61 509.66C478.18 509.13 472.3 507.73 469.1 503.32C465.9 498.91 467.91 490.97 473.34 490.6C455.34 485.83 438.26 501.72 419.67 503.03C410.86 503.65 402.13 500.93 393.3 500.79C380.86 500.59 368.97 505.48 356.76 507.89C321.17 514.89 285.17 500.89 251.61 487.07C255.56 483.07 257.53 479.24 256.61 473.74C248.56 471.6 239.69 467.47 237.61 459.39C235.35 450.48 242.5 442.28 246.07 433.8C252.81 417.8 246.98 398.05 255.86 383.15C257.86 379.73 260.64 376.71 262.16 373.03C263.55 369.65 263.81 365.93 264.57 362.35C264.898 360.782 265.332 359.239 265.87 357.73C264.19 358.19 262.49 358.61 260.87 359.15C254.343 361.337 248.492 365.175 243.887 370.292C239.282 375.408 236.079 381.629 234.59 388.35C233.83 391.93 233.59 395.65 232.18 399.03C230.66 402.71 227.91 405.73 225.88 409.15C217 424.05 222.83 443.82 216.09 459.8C212.52 468.28 205.37 476.48 207.63 485.39C209.69 493.47 218.56 497.6 226.63 499.74C227.58 505.24 225.63 509.12 221.63 513.07C255.19 526.86 291.19 540.94 326.78 533.89C338.99 531.48 350.88 526.59 363.32 526.79C372.15 526.93 380.88 529.65 389.69 529.03C408.28 527.72 425.35 511.83 443.36 516.6C437.93 516.97 435.92 524.91 439.12 529.32C442.32 533.73 448.21 535.14 453.63 535.66C459.05 536.18 464.79 536.22 469.49 538.98C465.93 546.39 453.18 548.98 454.41 557.13C454.86 560.07 457.24 562.3 459.6 564.13C483.85 582.7 517.25 580.92 547.6 584.13C569.98 586.47 591.92 591.94 614.23 594.86C649.87 599.51 686 597.61 721.88 595.69C728.39 595.34 735.69 594.62 739.88 589.62C744.23 584.4 743.28 577.22 742.33 570.19C709.57 571.89 676.68 573.1 644.21 568.86Z" fill="black"/>
<path id="Vector_116" opacity="0.1" d="M277.18 341.04C281.137 337.518 285.777 334.85 290.81 333.2C295.13 331.8 299.81 331.13 303.64 328.75C307.47 326.37 310.41 321.48 308.64 317.29C306.21 311.48 296.76 310.61 295.43 304.44C294.82 301.6 296.27 298.99 298.29 296.73L271.4 319.73C268.13 322.53 264.53 326.23 265.4 330.43C266.57 335.71 273.63 337.12 277.18 341.04Z" fill="black"/>
</g>
<path id="Vector_117" d="M367.74 321.19C368.656 319.618 369.009 317.78 368.74 315.98C368.583 315.09 368.134 314.278 367.464 313.671C366.794 313.065 365.941 312.698 365.04 312.63L365.25 309.75C365.284 309.416 365.267 309.079 365.2 308.75C365.106 308.339 364.852 307.982 364.495 307.758C364.138 307.534 363.706 307.461 363.295 307.555C362.884 307.649 362.527 307.903 362.303 308.26C362.079 308.617 362.006 309.049 362.1 309.46C361.55 308.036 360.673 306.762 359.54 305.74C358.413 304.974 357.029 304.683 355.689 304.93C354.349 305.177 353.16 305.942 352.38 307.06C351.686 308.236 351.445 309.624 351.703 310.965C351.961 312.305 352.699 313.506 353.78 314.34C353.185 314.166 352.547 314.208 351.98 314.459C351.413 314.71 350.952 315.153 350.68 315.71C347.68 321.1 351.68 323.9 356.24 324.71C361.24 325.5 365 326.63 367.74 321.19Z" fill="#FFE9B3"/>
<path id="Vector_118" d="M513.74 515.19C514.656 513.618 515.009 511.78 514.74 509.98C514.583 509.09 514.134 508.278 513.464 507.671C512.794 507.065 511.941 506.698 511.04 506.63L511.25 503.75C511.301 503.419 511.301 503.081 511.25 502.75C511.156 502.339 510.902 501.982 510.545 501.758C510.188 501.534 509.756 501.461 509.345 501.555C508.934 501.649 508.577 501.903 508.353 502.26C508.129 502.617 508.056 503.049 508.15 503.46C507.6 502.036 506.723 500.762 505.59 499.74C504.463 498.974 503.079 498.683 501.739 498.93C500.399 499.177 499.21 499.942 498.43 501.06C497.736 502.236 497.495 503.624 497.753 504.965C498.011 506.305 498.749 507.506 499.83 508.34C499.235 508.166 498.597 508.208 498.03 508.459C497.463 508.71 497.002 509.153 496.73 509.71C493.73 515.1 497.73 517.9 502.29 518.71C507.24 519.5 511 520.63 513.74 515.19Z" fill="#FFE9B3"/>
    <!--TODO:-->
    <path id="popcorn6" d="M501.049 199.346C501.966 197.774 502.318 195.936 502.049 194.136C501.892 193.246 501.443 192.434 500.773 191.827C500.103 191.221 499.251 190.854 498.349 190.786L498.559 187.906C498.61 187.575 498.61 187.237 498.559 186.906C498.465 186.495 498.212 186.138 497.854 185.914C497.497 185.69 497.066 185.617 496.654 185.711C496.243 185.805 495.887 186.059 495.662 186.416C495.438 186.773 495.365 187.205 495.459 187.616C494.91 186.192 494.033 184.918 492.899 183.896C491.772 183.13 490.389 182.839 489.048 183.086C487.708 183.333 486.519 184.098 485.739 185.216C485.045 186.391 484.805 187.78 485.062 189.121C485.32 190.461 486.059 191.662 487.139 192.496C486.544 192.322 485.907 192.364 485.339 192.615C484.772 192.866 484.312 193.309 484.039 193.866C481.039 199.256 485.039 202.056 489.599 202.866C494.549 203.656 498.309 204.786 501.049 199.346Z" fill="#FFE9B3"/>
    <!--TODO:-->
    <path id="popcorn7" d="M323.245 208.77C324.906 208.033 326.268 206.753 327.105 205.14C327.504 204.331 327.622 203.412 327.441 202.528C327.26 201.645 326.79 200.847 326.105 200.26L327.955 198.04C328.193 197.786 328.388 197.496 328.535 197.18C328.7 196.791 328.705 196.353 328.547 195.961C328.39 195.569 328.083 195.256 327.695 195.09C327.306 194.924 326.868 194.919 326.476 195.077C326.084 195.234 325.77 195.541 325.605 195.93C325.995 194.456 326.033 192.911 325.715 191.42C325.251 190.137 324.3 189.088 323.068 188.502C321.836 187.916 320.423 187.84 319.135 188.29C317.884 188.834 316.876 189.816 316.299 191.052C315.723 192.288 315.618 193.692 316.005 195C315.625 194.511 315.085 194.171 314.48 194.039C313.875 193.907 313.243 193.993 312.695 194.28C307.115 196.89 308.695 201.47 311.935 204.81C315.435 208.46 317.815 211.57 323.245 208.77Z" fill="#FFE9B3"/>
<path id="Vector_119" d="M415.75 327.11C414.166 326.216 412.325 325.888 410.53 326.18C409.643 326.347 408.836 326.803 408.237 327.479C407.638 328.154 407.28 329.009 407.22 329.91L404.34 329.74C404.009 329.689 403.671 329.689 403.34 329.74C402.949 329.863 402.618 330.126 402.409 330.478C402.2 330.831 402.129 331.248 402.21 331.65C402.316 332.046 402.567 332.388 402.914 332.609C403.26 332.829 403.676 332.912 404.08 332.84C402.663 333.405 401.399 334.296 400.39 335.44C399.638 336.575 399.363 337.961 399.625 339.297C399.887 340.633 400.665 341.813 401.79 342.58C402.972 343.261 404.361 343.487 405.698 343.217C407.034 342.946 408.226 342.197 409.05 341.11C408.882 341.706 408.93 342.342 409.186 342.906C409.443 343.47 409.89 343.925 410.45 344.19C415.87 347.12 418.63 343.19 419.37 338.53C420.14 333.57 421.22 329.81 415.75 327.11Z" fill="#FFE9B3"/>
<path id="Vector_120" opacity="0.15" d="M415.75 327.11C414.166 326.216 412.325 325.888 410.53 326.18C409.643 326.347 408.836 326.803 408.237 327.479C407.638 328.154 407.28 329.009 407.22 329.91L404.34 329.74C404.009 329.689 403.671 329.689 403.34 329.74C402.949 329.863 402.618 330.126 402.409 330.478C402.2 330.831 402.129 331.248 402.21 331.65C402.316 332.046 402.567 332.388 402.914 332.609C403.26 332.829 403.676 332.912 404.08 332.84C402.663 333.405 401.399 334.296 400.39 335.44C399.638 336.575 399.363 337.961 399.625 339.297C399.887 340.633 400.665 341.813 401.79 342.58C402.972 343.261 404.361 343.487 405.698 343.217C407.034 342.946 408.226 342.197 409.05 341.11C408.882 341.706 408.93 342.342 409.186 342.906C409.443 343.47 409.89 343.925 410.45 344.19C415.87 347.12 418.63 343.19 419.37 338.53C420.14 333.57 421.22 329.81 415.75 327.11Z" fill="black"/>
<path id="Vector_121" d="M504.79 401.5C505.097 399.71 504.794 397.868 503.93 396.27C503.477 395.487 502.775 394.878 501.936 394.539C501.098 394.2 500.17 394.151 499.3 394.4L498.5 391.62C498.421 391.267 498.286 390.93 498.1 390.62C497.869 390.266 497.507 390.018 497.094 389.931C496.68 389.844 496.249 389.924 495.895 390.155C495.541 390.386 495.293 390.748 495.206 391.161C495.119 391.575 495.199 392.006 495.43 392.36C494.428 391.208 493.167 390.31 491.75 389.74C490.427 389.411 489.028 389.616 487.855 390.31C486.681 391.004 485.828 392.132 485.48 393.45C485.234 394.792 485.486 396.178 486.189 397.347C486.893 398.516 487.999 399.389 489.3 399.8C488.682 399.841 488.098 400.1 487.651 400.53C487.205 400.96 486.925 401.534 486.86 402.15C485.86 408.24 490.58 409.51 495.17 408.67C500.17 407.76 504.07 407.5 504.79 401.5Z" fill="#FFE9B3"/>
<path id="Vector_122" opacity="0.15" d="M504.79 401.5C505.097 399.71 504.794 397.868 503.93 396.27C503.477 395.487 502.775 394.878 501.936 394.539C501.098 394.2 500.17 394.151 499.3 394.4L498.5 391.62C498.421 391.267 498.286 390.93 498.1 390.62C497.869 390.266 497.507 390.018 497.094 389.931C496.68 389.844 496.249 389.924 495.895 390.155C495.541 390.386 495.293 390.748 495.206 391.161C495.119 391.575 495.199 392.006 495.43 392.36C494.428 391.208 493.167 390.31 491.75 389.74C490.427 389.411 489.028 389.616 487.855 390.31C486.681 391.004 485.828 392.132 485.48 393.45C485.234 394.792 485.486 396.178 486.189 397.347C486.893 398.516 487.999 399.389 489.3 399.8C488.682 399.841 488.098 400.1 487.651 400.53C487.205 400.96 486.925 401.534 486.86 402.15C485.86 408.24 490.58 409.51 495.17 408.67C500.17 407.76 504.07 407.5 504.79 401.5Z" fill="black"/>
<path id="Vector_123" d="M624.79 310.5C625.097 308.71 624.794 306.868 623.93 305.27C623.477 304.487 622.775 303.878 621.936 303.539C621.098 303.2 620.17 303.151 619.3 303.4L618.5 300.62C618.421 300.267 618.286 299.93 618.1 299.62C617.986 299.445 617.838 299.294 617.665 299.175C617.493 299.057 617.299 298.974 617.094 298.931C616.889 298.888 616.678 298.885 616.472 298.924C616.266 298.962 616.07 299.041 615.895 299.155C615.72 299.269 615.569 299.417 615.45 299.59C615.332 299.762 615.249 299.956 615.206 300.161C615.163 300.366 615.16 300.577 615.199 300.783C615.237 300.989 615.316 301.185 615.43 301.36C614.428 300.208 613.167 299.31 611.75 298.74C610.427 298.411 609.028 298.616 607.855 299.31C606.681 300.004 605.828 301.132 605.48 302.45C605.234 303.792 605.486 305.178 606.189 306.347C606.893 307.516 607.999 308.389 609.3 308.8C608.682 308.841 608.098 309.1 607.651 309.53C607.205 309.96 606.925 310.534 606.86 311.15C605.86 317.24 610.58 318.51 615.17 317.67C620.17 316.76 624.07 316.5 624.79 310.5Z" fill="#FFE9B3"/>
<path id="Vector_124" opacity="0.15" d="M624.79 310.5C625.097 308.71 624.794 306.868 623.93 305.27C623.477 304.487 622.775 303.878 621.936 303.539C621.098 303.2 620.17 303.151 619.3 303.4L618.5 300.62C618.421 300.267 618.286 299.93 618.1 299.62C617.986 299.445 617.838 299.294 617.665 299.175C617.493 299.057 617.299 298.974 617.094 298.931C616.889 298.888 616.678 298.885 616.472 298.924C616.266 298.962 616.07 299.041 615.895 299.155C615.72 299.269 615.569 299.417 615.45 299.59C615.332 299.762 615.249 299.956 615.206 300.161C615.163 300.366 615.16 300.577 615.199 300.783C615.237 300.989 615.316 301.185 615.43 301.36C614.428 300.208 613.167 299.31 611.75 298.74C610.427 298.411 609.028 298.616 607.855 299.31C606.681 300.004 605.828 301.132 605.48 302.45C605.234 303.792 605.486 305.178 606.189 306.347C606.893 307.516 607.999 308.389 609.3 308.8C608.682 308.841 608.098 309.1 607.651 309.53C607.205 309.96 606.925 310.534 606.86 311.15C605.86 317.24 610.58 318.51 615.17 317.67C620.17 316.76 624.07 316.5 624.79 310.5Z" fill="black"/>
</g>
</svg>
